<?xml version="1.0" encoding="utf-8"?>
<!-- Generator: Adobe Illustrator 22.0.0, SVG Export Plug-In . SVG Version: 6.00 Build 0)  -->
<svg version="1.1" id="Layer_1" xmlns="http://www.w3.org/2000/svg" xmlns:xlink="http://www.w3.org/1999/xlink" x="0px" y="0px"
	 width="27px" height="35px" viewBox="0 0 27 35" style="enable-background:new 0 0 27 35;" xml:space="preserve">
<style type="text/css">
	.st0{fill:#353534;}
</style>
<path class="st0" d="M19.181,19.601c-4.107,0-7.449,3.342-7.449,7.45c0,4.107,3.342,7.449,7.449,7.449s7.449-3.342,7.449-7.449
	C26.63,22.943,23.289,19.601,19.181,19.601z M19.181,32.973c-3.265,0-5.922-2.657-5.922-5.922c0-3.265,2.657-5.921,5.922-5.921
	s5.922,2.656,5.922,5.921C25.103,30.315,22.446,32.973,19.181,32.973z M22.619,27.046c0,0.422-0.342,0.764-0.764,0.764h-1.918v1.918
	c0,0.422-0.342,0.764-0.764,0.764s-0.764-0.342-0.764-0.764V27.81h-1.918c-0.422,0-0.764-0.342-0.764-0.764s0.342-0.764,0.764-0.764
	h1.918v-1.917c0-0.422,0.342-0.764,0.764-0.764s0.764,0.342,0.764,0.764v1.917h1.918C22.277,26.282,22.619,26.624,22.619,27.046z
	 M11.552,32.594H1.897v-8.706c0-4.555,3.705-8.26,8.26-8.26c2.345,0,4.588,1.002,6.154,2.75c0.282,0.314,0.766,0.34,1.079,0.059
	c0.314-0.281,0.341-0.765,0.06-1.079c-1.058-1.181-2.382-2.062-3.835-2.613c2.394-1.271,4.029-3.789,4.029-6.683
	c0-4.171-3.393-7.564-7.563-7.564S2.516,3.893,2.516,8.064c0,2.919,1.664,5.452,4.091,6.713c-3.645,1.425-6.238,4.968-6.238,9.112
	v9.469c0,0.422,0.342,0.764,0.764,0.764h10.419c0.422,0,0.764-0.342,0.764-0.764S11.974,32.594,11.552,32.594z M4.043,8.064
	c0-3.328,2.708-6.036,6.037-6.036c3.328,0,6.036,2.708,6.036,6.036c0,3.329-2.708,6.036-6.036,6.036
	C6.751,14.1,4.043,11.393,4.043,8.064z"/>
</svg>
