<?xml version="1.0" encoding="utf-8"?>
<!-- Generator: Adobe Illustrator 22.0.0, SVG Export Plug-In . SVG Version: 6.00 Build 0)  -->
<svg version="1.1" id="Layer_1" xmlns="http://www.w3.org/2000/svg" xmlns:xlink="http://www.w3.org/1999/xlink" x="0px" y="0px"
	 width="24px" height="24px" viewBox="0 0 24 24" style="enable-background:new 0 0 24 24;" xml:space="preserve">
<style type="text/css">
	.st0{fill:#0064DD;}
</style>
<path class="st0" d="M12,0C5.383,0,0,5.383,0,12c0,6.617,5.383,12,12,12s12-5.383,12-12C24,5.383,18.617,0,12,0z M12,22.909
	C5.985,22.909,1.091,18.015,1.091,12C1.091,5.985,5.985,1.091,12,1.091S22.909,5.985,22.909,12
	C22.909,18.015,18.015,22.909,12,22.909z M17.127,12c0,0.301-0.244,0.545-0.545,0.545h-4.036v4.036c0,0.301-0.244,0.545-0.545,0.545
	s-0.545-0.244-0.545-0.545v-4.036H7.418c-0.301,0-0.545-0.244-0.545-0.545c0-0.301,0.244-0.545,0.545-0.545h4.036V7.418
	c0-0.301,0.244-0.545,0.545-0.545s0.545,0.244,0.545,0.545v4.036h4.036C16.883,11.455,17.127,11.699,17.127,12z"/>
</svg>
