<?xml version="1.0" encoding="utf-8"?>
<!-- Generator: Adobe Illustrator 22.0.0, SVG Export Plug-In . SVG Version: 6.00 Build 0)  -->
<svg version="1.1" id="Layer_1" xmlns="http://www.w3.org/2000/svg" xmlns:xlink="http://www.w3.org/1999/xlink" x="0px" y="0px"
	 width="108px" height="100px" viewBox="0 0 108 100" style="enable-background:new 0 0 108 100;" xml:space="preserve">
<style type="text/css">
	.st0{fill:#B5B4B5;}
</style>
<path class="st0" d="M31.894,39.623c0,4.195,3.413,7.608,7.608,7.608s7.608-3.413,7.608-7.608s-3.413-7.608-7.608-7.608
	S31.894,35.428,31.894,39.623z M44.345,39.623c0,2.67-2.172,4.843-4.843,4.843c-2.67,0-4.843-2.172-4.843-4.843
	c0-2.67,2.172-4.843,4.843-4.843C42.173,34.78,44.345,36.953,44.345,39.623z M82.367,63.741V45.848c0-0.764-0.619-1.383-1.383-1.383
	s-1.383,0.619-1.383,1.383v14.578L65.329,46.154c-0.54-0.54-1.416-0.54-1.956,0L46.686,62.841l-6.208-6.208
	c-0.54-0.54-1.416-0.54-1.956,0L24.285,70.87V26.724c0-1.271,1.034-2.305,2.305-2.305h31.578c0.764,0,1.383-0.619,1.383-1.383
	c0-0.764-0.619-1.383-1.383-1.383H26.59c-2.796,0-5.071,2.275-5.071,5.071v50.706c0,2.796,2.275,5.071,5.071,5.071h50.706
	c2.796,0,5.071-2.275,5.071-5.071V63.793C82.367,63.775,82.367,63.758,82.367,63.741z M24.285,77.429v-2.648L39.5,59.566
	l20.168,20.168H26.59C25.319,79.734,24.285,78.7,24.285,77.429z M77.296,79.734H63.579L48.642,64.797l15.709-15.709l15.25,15.25
	v13.093C79.601,78.7,78.567,79.734,77.296,79.734z M72.998,17.5c-7.434,0-13.483,6.048-13.483,13.483s6.048,13.483,13.483,13.483
	c7.434,0,13.483-6.048,13.483-13.483S80.432,17.5,72.998,17.5z M72.998,41.7c-5.909,0-10.717-4.808-10.717-10.717
	s4.808-10.717,10.717-10.717s10.717,4.808,10.717,10.717S78.907,41.7,72.998,41.7z M79.22,30.975c0,0.764-0.619,1.383-1.383,1.383
	h-3.47v3.47c0,0.764-0.619,1.383-1.383,1.383c-0.764,0-1.383-0.619-1.383-1.383v-3.47h-3.47c-0.764,0-1.383-0.619-1.383-1.383
	s0.619-1.383,1.383-1.383h3.47v-3.47c0-0.764,0.619-1.383,1.383-1.383c0.764,0,1.383,0.619,1.383,1.383v3.47h3.47
	C78.601,29.592,79.22,30.211,79.22,30.975z"/>
</svg>
