<?xml version="1.0" encoding="utf-8"?>
<!-- Generator: Adobe Illustrator 22.0.0, SVG Export Plug-In . SVG Version: 6.00 Build 0)  -->
<svg version="1.1" id="Layer_1" xmlns="http://www.w3.org/2000/svg" xmlns:xlink="http://www.w3.org/1999/xlink" x="0px" y="0px"
	 width="28px" height="56px" viewBox="0 0 28 56" style="enable-background:new 0 0 28 56;" xml:space="preserve">
<style type="text/css">
	.st0{fill:#818181;}
</style>
<path class="st0" d="M23.865,50.436c-1.075-1.645-1.648-3.568-1.648-5.533V38.18c0-4.545-3.685-8.23-8.23-8.23
	c-4.545,0-8.23,3.685-8.23,8.23v6.734c0,1.959-0.564,3.877-1.623,5.525c-0.198,0.309,0.023,0.714,0.39,0.714h6.566
	c0,1.6,1.297,2.897,2.897,2.897c1.6,0,2.897-1.297,2.897-2.897h6.593C23.845,51.153,24.066,50.744,23.865,50.436z"/>
<path class="st0" d="M24.35,21.999c-1.016-1.555-1.553-3.359-1.553-5.216V10.06c0-4.858-3.952-8.81-8.81-8.81s-8.81,3.952-8.81,8.81
	v6.734c0,1.852-0.53,3.654-1.531,5.212c-0.207,0.321-0.221,0.729-0.038,1.064c0.183,0.335,0.534,0.543,0.916,0.543h6.021
	c0.173,1.756,1.641,3.137,3.442,3.137s3.269-1.381,3.442-3.137h6.048c0.383,0,0.735-0.209,0.917-0.547S24.56,22.32,24.35,21.999z
	 M13.987,25.591c-1.162,0-2.118-0.862-2.283-1.978h4.567C16.104,24.729,15.149,25.591,13.987,25.591z M4.733,22.454
	c1.049-1.703,1.603-3.656,1.603-5.66V10.06c0-4.219,3.432-7.651,7.651-7.651s7.651,3.432,7.651,7.651v6.723
	c0,2.012,0.562,3.968,1.628,5.671H4.733z"/>
</svg>
