<?xml version="1.0" encoding="utf-8"?>
<!-- Generator: Adobe Illustrator 22.0.0, SVG Export Plug-In . SVG Version: 6.00 Build 0)  -->
<svg version="1.1" id="Layer_1" xmlns="http://www.w3.org/2000/svg" xmlns:xlink="http://www.w3.org/1999/xlink" x="0px" y="0px"
	 width="20px" height="15px" viewBox="0 0 20 15" style="enable-background:new 0 0 20 15;" xml:space="preserve">
<style type="text/css">
	.st0{fill:#818181;}
</style>
<path class="st0" d="M19.815,14.286l-0.522-1.177c-0.419-0.945-1.358-1.556-2.392-1.556h-0.22c-0.165,0-0.337,0-0.404-0.046
	c-0.064-0.044-0.102-0.216-0.102-0.46v-0.611c0.157-0.108,0.304-0.229,0.439-0.363l1.289-0.231c0.472-0.085,0.814-0.495,0.814-0.973
	V4.606c0-2.401-1.953-4.356-4.356-4.356s-4.356,1.954-4.356,4.356v4.26c0,0.483,0.345,0.893,0.822,0.975l1.315,0.226
	c0.141,0.139,0.294,0.267,0.458,0.379v0.603c0,0.244-0.038,0.416-0.102,0.46c-0.067,0.046-0.238,0.046-0.404,0.046H11.8
	c-1.018,0-1.952,0.598-2.377,1.524L8.87,14.283c-0.048,0.102-0.039,0.222,0.022,0.316c0.06,0.093,0.165,0.151,0.277,0.151h10.343
	c0.111,0,0.216-0.056,0.276-0.15C19.849,14.506,19.86,14.388,19.815,14.286z M11.859,7.809V5.846
	c0.521,0.16,1.062,0.242,1.614,0.242c1.269,0,2.463-0.428,3.435-1.208v2.927c0,1.392-1.133,2.525-2.525,2.525
	C12.992,10.332,11.859,9.201,11.859,7.809z M10.664,8.865V4.606c0-2.039,1.658-3.697,3.697-3.697s3.697,1.658,3.697,3.697v4.263
	c0,0.16-0.114,0.296-0.271,0.325l-0.61,0.11c0.241-0.448,0.39-0.951,0.39-1.495V4.592c0-0.143-0.013-0.286-0.031-0.427
	c0-0.002,0-0.002,0-0.003c-0.002-0.014-0.001-0.027-0.002-0.039c-0.002-0.014-0.01-0.025-0.014-0.038
	c-0.006-0.022-0.012-0.042-0.023-0.063c-0.01-0.02-0.024-0.037-0.038-0.055c-0.008-0.01-0.013-0.023-0.023-0.033
	c-0.005-0.005-0.012-0.006-0.018-0.011c-0.018-0.015-0.036-0.025-0.056-0.036c-0.019-0.01-0.036-0.02-0.055-0.026
	c-0.019-0.006-0.039-0.008-0.059-0.01c-0.023-0.002-0.045-0.006-0.068-0.003c-0.007,0.001-0.014-0.002-0.02-0.002
	c-0.014,0.002-0.025,0.01-0.037,0.014c-0.022,0.006-0.043,0.012-0.064,0.023c-0.02,0.01-0.037,0.024-0.055,0.038
	c-0.01,0.008-0.023,0.013-0.033,0.023c-0.922,0.959-2.165,1.488-3.495,1.488c-0.63,0-1.242-0.119-1.821-0.353
	c-0.021-0.008-0.042-0.008-0.064-0.012c-0.02-0.003-0.039-0.012-0.06-0.012c-0.001,0-0.002,0.001-0.002,0.001
	c-0.036,0-0.072,0.009-0.106,0.021c-0.049,0.015-0.093,0.039-0.126,0.074l-0.001,0.001c-0.031,0.031-0.054,0.066-0.07,0.106
	c0,0.001-0.001,0.001-0.002,0.002c-0.007,0.018-0.006,0.036-0.01,0.055c-0.006,0.022-0.015,0.044-0.015,0.068v2.426
	c0,0.542,0.149,1.046,0.39,1.494L10.938,9.19C10.78,9.163,10.664,9.027,10.664,8.865z M9.684,14.09l0.339-0.738
	c0.318-0.693,1.016-1.14,1.778-1.14h0.295c0.436,0,1.165,0,1.165-1.165v-0.27c0.35,0.133,0.727,0.215,1.123,0.215
	c0.4,0,0.78-0.082,1.133-0.218v0.272c0,1.126,0.679,1.163,1.118,1.164c0.002,0,0.002,0.001,0.002,0.001h0.264
	c0.773,0,1.475,0.457,1.788,1.164l0.317,0.714H9.684z M8.295,11.554H7.955c-0.165,0-0.337,0-0.404-0.046
	c-0.064-0.044-0.102-0.216-0.102-0.46v-0.582c0.864-0.57,1.435-1.546,1.435-2.656V4.592c0-0.193-0.023-0.383-0.058-0.57
	C8.818,3.973,8.808,3.925,8.796,3.877C8.759,3.712,8.711,3.552,8.648,3.396C8.641,3.378,8.637,3.359,8.629,3.343
	c-0.06-0.142-0.13-0.28-0.211-0.412C8.41,2.916,8.396,2.908,8.386,2.895C7.821,2.004,6.832,1.407,5.701,1.407
	c-1.755,0-3.184,1.428-3.184,3.184v0.313v2.903c0,1.096,0.557,2.064,1.402,2.637v0.603c0,0.244-0.038,0.416-0.102,0.46
	c-0.067,0.046-0.238,0.046-0.404,0.046H3.116c-1.021,0-1.955,0.6-2.38,1.528L0.187,14.28c-0.047,0.102-0.038,0.222,0.023,0.316
	s0.165,0.151,0.278,0.151h6.883c0.182,0,0.329-0.148,0.329-0.329c0-0.181-0.148-0.329-0.329-0.329h-6.37l0.335-0.732
	c0.317-0.694,1.016-1.143,1.779-1.143h0.298c0.436,0,1.165,0,1.165-1.165v-0.27c0.35,0.133,0.727,0.215,1.123,0.215
	c0.384,0,0.748-0.079,1.088-0.205v0.259c0,1.165,0.729,1.165,1.165,1.165h0.339c0.182,0,0.329-0.148,0.329-0.329
	C8.623,11.701,8.476,11.554,8.295,11.554z M3.177,7.809V4.905V4.592c0-1.392,1.133-2.525,2.525-2.525
	c1.041,0,1.936,0.634,2.322,1.535c0.006,0.013,0.008,0.026,0.014,0.039c0.051,0.123,0.089,0.252,0.12,0.384
	c0.008,0.038,0.017,0.076,0.024,0.114c0.027,0.147,0.046,0.297,0.046,0.452v3.217c0,0.913-0.492,1.708-1.22,2.151
	C6.989,9.966,6.973,9.975,6.957,9.985c-0.371,0.215-0.796,0.346-1.254,0.346C4.309,10.332,3.177,9.201,3.177,7.809z"/>
</svg>
