<?xml version="1.0" encoding="utf-8"?>
<!-- Generator: Adobe Illustrator 22.0.0, SVG Export Plug-In . SVG Version: 6.00 Build 0)  -->
<svg version="1.1" id="Layer_1" xmlns="http://www.w3.org/2000/svg" xmlns:xlink="http://www.w3.org/1999/xlink" x="0px" y="0px"
	 width="24px" height="24px" viewBox="0 0 24 24" style="enable-background:new 0 0 24 24;" xml:space="preserve">
<style type="text/css">
	.st0{fill:#818181;}
</style>
<path class="st0" d="M17.245,7.959c0.213,0.213,0.213,0.558,0,0.771l-6.994,6.994c-0.107,0.106-0.246,0.16-0.386,0.16
	s-0.279-0.053-0.386-0.16L6.67,12.915c-0.213-0.213-0.213-0.558,0-0.771c0.213-0.213,0.558-0.213,0.771,0l2.423,2.423l6.608-6.608
	C16.686,7.746,17.032,7.746,17.245,7.959z M24,12c0,6.617-5.383,12-12,12S0,18.617,0,12S5.383,0,12,0S24,5.383,24,12z M22.909,12
	c0-6.015-4.894-10.909-10.909-10.909S1.091,5.985,1.091,12S5.985,22.909,12,22.909S22.909,18.015,22.909,12z"/>
</svg>
