<?xml version="1.0" encoding="utf-8"?>
<!-- Generator: Adobe Illustrator 22.0.0, SVG Export Plug-In . SVG Version: 6.00 Build 0)  -->
<svg version="1.1" id="Layer_1" xmlns="http://www.w3.org/2000/svg" xmlns:xlink="http://www.w3.org/1999/xlink" x="0px" y="0px"
	 width="21px" height="42px" viewBox="0 0 21 42" style="enable-background:new 0 0 21 42;" xml:space="preserve">
<style type="text/css">
	.st0{fill:#818181;}
	.st1{fill:#0064DC;}
</style>
<g>
	<path class="st0" d="M6.3,9.6c-0.5,0-0.9,0.4-0.9,0.9s0.4,0.9,0.9,0.9s0.9-0.4,0.9-0.9S6.8,9.6,6.3,9.6z"/>
	<path class="st0" d="M10.5,9.6c-0.5,0-0.9,0.4-0.9,0.9s0.4,0.9,0.9,0.9c0.5,0,0.9-0.4,0.9-0.9S11,9.6,10.5,9.6z"/>
	<path class="st0" d="M14.7,9.6c-0.5,0-0.9,0.4-0.9,0.9s0.4,0.9,0.9,0.9c0.5,0,0.9-0.4,0.9-0.9S15.2,9.6,14.7,9.6z"/>
	<path class="st0" d="M18.1,17.5c1.7-1.9,2.7-4.4,2.7-7c0-5.7-4.6-10.3-10.3-10.3C4.8,0.2,0.2,4.8,0.2,10.5c0,2.8,1.1,5.4,3,7.3
		c1.9,1.9,4.5,3,7.3,3c0,0,0,0,0,0h9.9c0.2,0,0.4-0.1,0.4-0.3c0.1-0.2,0-0.4-0.1-0.5L18.1,17.5z M10.5,19.9
		C10.5,19.9,10.5,19.9,10.5,19.9c-5.2,0-9.4-4.2-9.4-9.4c0-5.2,4.2-9.4,9.4-9.4s9.4,4.2,9.4,9.4c0,2.5-1,4.9-2.8,6.6
		c-0.2,0.2-0.2,0.5,0,0.7l2.1,2.1H10.5z"/>
</g>
<g>
	<path class="st1" d="M6.3,30.6c-0.5,0-0.9,0.4-0.9,0.9s0.4,0.9,0.9,0.9s0.9-0.4,0.9-0.9S6.8,30.6,6.3,30.6z"/>
	<path class="st1" d="M10.5,30.6c-0.5,0-0.9,0.4-0.9,0.9s0.4,0.9,0.9,0.9c0.5,0,0.9-0.4,0.9-0.9S11,30.6,10.5,30.6z"/>
	<path class="st1" d="M14.7,30.6c-0.5,0-0.9,0.4-0.9,0.9s0.4,0.9,0.9,0.9c0.5,0,0.9-0.4,0.9-0.9S15.2,30.6,14.7,30.6z"/>
	<path class="st1" d="M18.1,38.5c1.7-1.9,2.7-4.4,2.7-7c0-5.7-4.6-10.3-10.3-10.3c-5.7,0-10.3,4.6-10.3,10.3c0,2.8,1.1,5.4,3,7.3
		c1.9,1.9,4.5,3,7.3,3c0,0,0,0,0,0h9.9c0.2,0,0.4-0.1,0.4-0.3c0.1-0.2,0-0.4-0.1-0.5L18.1,38.5z M10.5,40.9
		C10.5,40.9,10.5,40.9,10.5,40.9c-5.2,0-9.4-4.2-9.4-9.4c0-5.2,4.2-9.4,9.4-9.4s9.4,4.2,9.4,9.4c0,2.5-1,4.9-2.8,6.6
		c-0.2,0.2-0.2,0.5,0,0.7l2.1,2.1H10.5z"/>
</g>
</svg>
