<?xml version="1.0" encoding="utf-8"?>
<!-- Generator: Adobe Illustrator 22.0.0, SVG Export Plug-In . SVG Version: 6.00 Build 0)  -->
<svg version="1.1" id="Layer_1" xmlns="http://www.w3.org/2000/svg" xmlns:xlink="http://www.w3.org/1999/xlink" x="0px" y="0px"
	 width="27px" height="27px" viewBox="0 0 27 27" style="enable-background:new 0 0 27 27;" xml:space="preserve">
<style type="text/css">
	.st0{fill:#0064DF;}
</style>
<path class="st0" d="M13.5,0.5c-7.168,0-13,5.832-13,13s5.832,13,13,13s13-5.832,13-13S20.668,0.5,13.5,0.5z M13.5,25.318
	c-6.517,0-11.818-5.302-11.818-11.818S6.983,1.682,13.5,1.682S25.318,6.983,25.318,13.5S20.017,25.318,13.5,25.318z M19.182,9.122
	c0.231,0.231,0.231,0.605,0,0.836l-7.576,7.576c-0.115,0.115-0.267,0.173-0.418,0.173c-0.151,0-0.302-0.058-0.418-0.173
	l-3.043-3.043c-0.231-0.231-0.231-0.605,0-0.836c0.231-0.231,0.605-0.231,0.836,0l2.625,2.625l7.159-7.159
	C18.577,8.891,18.951,8.891,19.182,9.122z"/>
</svg>
