<?xml version="1.0" encoding="utf-8"?>
<!-- Generator: Adobe Illustrator 22.0.0, SVG Export Plug-In . SVG Version: 6.00 Build 0)  -->
<svg version="1.1" id="Layer_1" xmlns="http://www.w3.org/2000/svg" xmlns:xlink="http://www.w3.org/1999/xlink" x="0px" y="0px"
	 width="28px" height="56px" viewBox="0 0 28 56" style="enable-background:new 0 0 28 56;" xml:space="preserve">
<style type="text/css">
	.st0{fill:#818181;}
</style>
<g id="XMLID_1_">
	<g>
		<g>
			<g>
				<path class="st0" d="M10.625,26.65c-0.079,0-0.159-0.017-0.235-0.05l-3.394-1.521c-0.25-0.112-0.386-0.385-0.325-0.653
					l0.55-2.415c-0.443-0.375-0.855-0.788-1.231-1.231l-2.415,0.55c-0.271,0.061-0.541-0.076-0.653-0.325L1.4,17.61
					c-0.112-0.25-0.032-0.545,0.191-0.704l2.017-1.437C3.54,14.983,3.506,14.49,3.506,14c0-0.49,0.035-0.983,0.103-1.47
					l-2.017-1.437C1.368,10.935,1.288,10.64,1.4,10.39l1.521-3.394c0.112-0.25,0.382-0.388,0.653-0.325l2.415,0.55
					c0.376-0.444,0.789-0.856,1.231-1.232l-0.55-2.415C6.61,3.307,6.746,3.034,6.996,2.922L10.39,1.4
					c0.251-0.112,0.544-0.032,0.704,0.191l1.437,2.017c0.97-0.136,1.969-0.136,2.94,0l1.436-2.017
					c0.159-0.224,0.451-0.304,0.704-0.191l3.395,1.521c0.25,0.112,0.386,0.385,0.325,0.653L20.78,5.99
					c0.443,0.375,0.856,0.788,1.231,1.231l2.415-0.55c0.268-0.064,0.541,0.075,0.653,0.325L26.6,10.39
					c0.112,0.25,0.032,0.545-0.191,0.704l-2.017,1.436c0.068,0.485,0.103,0.979,0.103,1.47c0,0.492-0.035,0.985-0.103,1.471
					l2.017,1.436c0.223,0.159,0.303,0.453,0.191,0.704l-1.521,3.394c-0.112,0.25-0.384,0.387-0.653,0.325l-2.415-0.55
					c-0.376,0.443-0.788,0.856-1.231,1.231l0.55,2.415c0.061,0.268-0.075,0.541-0.325,0.653L17.61,26.6
					c-0.253,0.111-0.545,0.032-0.704-0.191l-1.436-2.017c-0.971,0.136-1.97,0.136-2.94,0l-1.437,2.017
					C10.983,26.564,10.806,26.65,10.625,26.65z M7.897,24.222l2.534,1.136l1.37-1.923c0.128-0.181,0.347-0.273,0.568-0.233
					c1.068,0.188,2.192,0.188,3.264,0c0.214-0.04,0.439,0.052,0.568,0.233l1.369,1.923l2.534-1.136l-0.524-2.303
					c-0.049-0.216,0.03-0.442,0.205-0.58c0.577-0.455,1.1-0.979,1.556-1.556c0.137-0.174,0.361-0.254,0.579-0.205l2.302,0.524
					l1.136-2.534l-1.923-1.369c-0.181-0.128-0.271-0.35-0.233-0.568c0.094-0.536,0.142-1.085,0.142-1.633s-0.048-1.097-0.142-1.632
					c-0.039-0.218,0.052-0.439,0.233-0.568l1.923-1.369l-1.136-2.534l-2.302,0.524c-0.218,0.049-0.442-0.03-0.579-0.205
					c-0.456-0.577-0.979-1.101-1.557-1.557c-0.174-0.137-0.253-0.363-0.204-0.579l0.524-2.302L17.57,2.642L16.2,4.565
					c-0.129,0.181-0.354,0.268-0.568,0.233c-1.072-0.189-2.196-0.189-3.264,0c-0.222,0.035-0.44-0.052-0.568-0.233l-1.37-1.923
					L7.897,3.779l0.524,2.302C8.47,6.297,8.391,6.523,8.217,6.66C7.64,7.115,7.117,7.639,6.66,8.217
					C6.523,8.391,6.296,8.471,6.081,8.421L3.779,7.897l-1.136,2.534L4.565,11.8c0.181,0.128,0.271,0.349,0.233,0.567
					C4.704,12.906,4.656,13.455,4.656,14c0,0.545,0.048,1.095,0.142,1.633c0.038,0.218-0.052,0.439-0.233,0.567L2.642,17.57
					l1.136,2.534l2.303-0.524c0.215-0.049,0.442,0.03,0.579,0.205c0.457,0.578,0.98,1.102,1.556,1.556
					c0.174,0.138,0.254,0.363,0.205,0.58L7.897,24.222z"/>
			</g>
			<g>
				<path class="st0" d="M14,19.75c-3.171,0-5.75-2.58-5.75-5.75c0-3.17,2.58-5.75,5.75-5.75c3.17,0,5.75,2.58,5.75,5.75
					C19.75,17.171,17.171,19.75,14,19.75z M14,9.4c-2.537,0-4.6,2.063-4.6,4.6c0,2.537,2.063,4.6,4.6,4.6c2.536,0,4.6-2.063,4.6-4.6
					C18.6,11.464,16.536,9.4,14,9.4z"/>
			</g>
		</g>
	</g>
</g>
<path class="st0" d="M24.145,42c0-0.604-0.053-1.196-0.154-1.772l2.359-1.68l-1.556-3.472l-2.825,0.644
	c-0.495-0.627-1.062-1.194-1.689-1.689l0.644-2.825l-3.472-1.556l-1.68,2.359c-0.575-0.101-1.167-0.154-1.772-0.154
	s-1.196,0.053-1.772,0.154l-1.68-2.359l-3.472,1.556l0.644,2.825c-0.627,0.495-1.194,1.062-1.689,1.689l-2.825-0.644L1.65,38.548
	l2.359,1.68C3.908,40.804,3.855,41.396,3.855,42s0.053,1.196,0.154,1.772l-2.359,1.68l1.556,3.472l2.825-0.644
	c0.495,0.627,1.062,1.194,1.689,1.689l-0.644,2.825l3.472,1.556l1.68-2.359c0.575,0.101,1.167,0.154,1.772,0.154
	s1.196-0.053,1.772-0.154l1.68,2.359l3.472-1.556l-0.644-2.825c0.627-0.495,1.194-1.062,1.689-1.689l2.825,0.644l1.556-3.472
	l-2.359-1.68C24.092,43.196,24.145,42.604,24.145,42z M14,47.293c-2.923,0-5.293-2.37-5.293-5.293c0-2.923,2.37-5.293,5.293-5.293
	c2.923,0,5.293,2.37,5.293,5.293C19.293,44.923,16.923,47.293,14,47.293z"/>
</svg>
