<?xml version="1.0" encoding="utf-8"?>
<!-- Generator: Adobe Illustrator 22.0.0, SVG Export Plug-In . SVG Version: 6.00 Build 0)  -->
<svg version="1.1" id="Layer_1" xmlns="http://www.w3.org/2000/svg" xmlns:xlink="http://www.w3.org/1999/xlink" x="0px" y="0px"
	 width="27px" height="35px" viewBox="0 0 27 35" style="enable-background:new 0 0 27 35;" xml:space="preserve">
<style type="text/css">
	.st0{fill:#383A3F;}
</style>
<path class="st0" d="M24.449,21.783c-2.904-2.904-7.63-2.904-10.535,0c-1.407,1.407-2.182,3.278-2.182,5.268
	s0.775,3.861,2.182,5.268c1.407,1.407,3.278,2.182,5.268,2.182s3.861-0.775,5.268-2.182c1.407-1.407,2.182-3.278,2.182-5.268
	S25.856,23.19,24.449,21.783z M23.368,31.238c-1.118,1.118-2.605,1.734-4.187,1.734c-1.582,0-3.069-0.616-4.187-1.734
	c-1.118-1.118-1.734-2.605-1.734-4.187c0-1.582,0.616-3.069,1.734-4.187c1.154-1.154,2.671-1.732,4.187-1.732
	c1.516,0,3.033,0.577,4.187,1.732c1.118,1.118,1.734,2.605,1.734,4.187C25.103,28.632,24.487,30.119,23.368,31.238z M21.616,25.686
	l-1.356,1.356l1.356,1.356c0.298,0.298,0.298,0.782,0,1.081c-0.149,0.149-0.345,0.224-0.54,0.224c-0.195,0-0.391-0.075-0.54-0.224
	l-1.356-1.356l-1.356,1.356c-0.149,0.149-0.345,0.224-0.54,0.224c-0.196,0-0.391-0.075-0.54-0.224c-0.298-0.298-0.298-0.782,0-1.081
	l1.356-1.356l-1.356-1.356c-0.298-0.298-0.298-0.782,0-1.081s0.782-0.298,1.081,0l1.356,1.356l1.356-1.356
	c0.298-0.298,0.782-0.298,1.081,0S21.914,25.388,21.616,25.686z M11.552,32.593H1.897v-8.705c0-4.555,3.705-8.26,8.26-8.26
	c2.345,0,4.589,1.003,6.155,2.751c0.282,0.314,0.765,0.341,1.079,0.059c0.314-0.282,0.341-0.765,0.059-1.079
	c-1.058-1.181-2.381-2.063-3.835-2.613c2.394-1.271,4.029-3.788,4.029-6.683c0-4.171-3.393-7.564-7.564-7.564
	S2.517,3.893,2.517,8.064c0,2.919,1.664,5.451,4.091,6.712c-3.645,1.425-6.238,4.968-6.238,9.112v9.469
	c0,0.422,0.342,0.764,0.764,0.764h10.419c0.422,0,0.764-0.342,0.764-0.764C12.316,32.935,11.974,32.593,11.552,32.593z M4.045,8.064
	c0-3.328,2.708-6.036,6.036-6.036s6.036,2.708,6.036,6.036S13.409,14.1,10.081,14.1S4.045,11.392,4.045,8.064z"/>
</svg>
