<?xml version="1.0" encoding="utf-8"?>
<!-- Generator: Adobe Illustrator 22.0.0, SVG Export Plug-In . SVG Version: 6.00 Build 0)  -->
<svg version="1.1" id="Layer_1" xmlns="http://www.w3.org/2000/svg" xmlns:xlink="http://www.w3.org/1999/xlink" x="0px" y="0px"
	 width="60px" height="60px" viewBox="0 0 60 60" style="enable-background:new 0 0 60 60;" xml:space="preserve">
<style type="text/css">
	.st0{fill:#FFFFFF;}
</style>
<path class="st0" d="M9.595,20.421c0,3.873,3.151,7.023,7.023,7.023s7.023-3.151,7.023-7.023s-3.151-7.023-7.023-7.023
	S9.595,16.549,9.595,20.421z M21.088,20.421c0,2.465-2.005,4.47-4.47,4.47c-2.465,0-4.47-2.005-4.47-4.47
	c0-2.465,2.005-4.47,4.47-4.47C19.083,15.951,21.088,17.956,21.088,20.421z M56.184,42.684V26.167c0-0.705-0.572-1.276-1.277-1.276
	s-1.277,0.571-1.277,1.276v13.456L40.458,26.45c-0.499-0.498-1.307-0.498-1.805,0L23.249,41.853l-5.731-5.731
	c-0.498-0.498-1.307-0.498-1.805,0L2.571,49.265V8.514c0-1.173,0.954-2.127,2.128-2.127h29.149c0.705,0,1.276-0.572,1.276-1.277
	s-0.571-1.277-1.276-1.277H4.699c-2.581,0-4.68,2.1-4.68,4.68V55.32c0,2.581,2.1,4.68,4.68,4.68h46.805c2.581,0,4.68-2.1,4.68-4.68
	V42.732C56.185,42.716,56.185,42.7,56.184,42.684z M2.571,55.32v-2.444L16.616,38.83l18.617,18.617H4.699
	C3.525,57.447,2.571,56.493,2.571,55.32z M51.504,57.447H38.843L25.054,43.658l14.501-14.501l14.076,14.076V55.32
	C53.631,56.493,52.677,57.447,51.504,57.447z M47.536,0c-6.863,0-12.446,5.583-12.446,12.446s5.583,12.446,12.446,12.446
	s12.446-5.583,12.446-12.446S54.399,0,47.536,0z M47.536,22.338c-5.455,0-9.893-4.438-9.893-9.893s4.438-9.893,9.893-9.893
	s9.893,4.438,9.893,9.893S52.991,22.338,47.536,22.338z M53.28,12.438c0,0.705-0.571,1.276-1.276,1.276H48.8v3.203
	c0,0.705-0.571,1.276-1.276,1.276s-1.277-0.571-1.277-1.276v-3.203h-3.203c-0.705,0-1.276-0.571-1.276-1.276
	s0.571-1.277,1.276-1.277h3.203V7.958c0-0.705,0.572-1.276,1.277-1.276S48.8,7.253,48.8,7.958v3.203h3.203
	C52.709,11.162,53.28,11.733,53.28,12.438z"/>
</svg>
