<?xml version="1.0" encoding="utf-8"?>
<!-- Generator: Adobe Illustrator 22.0.0, SVG Export Plug-In . SVG Version: 6.00 Build 0)  -->
<svg version="1.1" id="Layer_1" xmlns="http://www.w3.org/2000/svg" xmlns:xlink="http://www.w3.org/1999/xlink" x="0px" y="0px"
	 width="24px" height="24px" viewBox="0 0 24 24" style="enable-background:new 0 0 24 24;" xml:space="preserve">
<style type="text/css">
	.st0{fill:#FFFFFF;}
</style>
<path class="st0" d="M23.8,5.6l-5.4-5.4c-0.2-0.2-0.6-0.2-0.8,0L1.6,16.3c-0.1,0.1-0.1,0.2-0.1,0.3L0,23.3c0,0.2,0,0.4,0.1,0.5
	C0.3,23.9,0.4,24,0.5,24c0,0,0.1,0,0.1,0l6.8-1.4c0.1,0,0.2-0.1,0.3-0.1L23.8,6.3C24.1,6.1,24.1,5.8,23.8,5.6z M7.1,21.6l-5.8,1.2
	l1.2-5.8L13.5,5.9l4.6,4.6L7.1,21.6z M18.9,9.7l-4.6-4.6l3.8-3.8l4.6,4.6L18.9,9.7z"/>
</svg>
