<?xml version="1.0" encoding="utf-8"?>
<!-- Generator: Adobe Illustrator 22.0.0, SVG Export Plug-In . SVG Version: 6.00 Build 0)  -->
<svg version="1.1" id="Layer_1" xmlns="http://www.w3.org/2000/svg" xmlns:xlink="http://www.w3.org/1999/xlink" x="0px" y="0px"
	 width="18px" height="18px" viewBox="0 0 18 18" enable-background="new 0 0 18 18" xml:space="preserve">
<g id="mention">
</g>
<g id="register">
	<g>
		<g>
			<path fill="#818181" d="M17.696,18H0.304C0.136,18,0,17.864,0,17.696V0.304C0,0.136,0.136,0,0.304,0s0.304,0.136,0.304,0.304
				v17.089h17.089c0.168,0,0.304,0.136,0.304,0.304S17.864,18,17.696,18z"/>
		</g>
	</g>
	<g>
		<g>
			<path fill="#818181" d="M3.72,13.03c-0.078,0-0.155-0.03-0.215-0.089c-0.119-0.119-0.119-0.311,0-0.429l3.726-3.727
				c0.057-0.057,0.134-0.089,0.215-0.089c0.081,0,0.158,0.032,0.215,0.089l3.492,3.492l5.999-7.199
				c0.107-0.129,0.299-0.146,0.428-0.039c0.129,0.107,0.146,0.299,0.039,0.428l-6.212,7.455c-0.055,0.066-0.134,0.105-0.22,0.109
				c-0.085,0.004-0.168-0.028-0.228-0.089L7.446,9.429l-3.511,3.512C3.876,13.001,3.798,13.03,3.72,13.03z"/>
		</g>
	</g>
	<g>
		<g>
			<g>
				<path fill="#818181" d="M17.42,5.576h-3.417c-0.168,0-0.304-0.136-0.304-0.304s0.136-0.304,0.304-0.304h3.417
					c0.168,0,0.304,0.136,0.304,0.304S17.588,5.576,17.42,5.576z"/>
			</g>
			<g>
				<path fill="#818181" d="M17.42,9.303c-0.168,0-0.304-0.136-0.304-0.304V5.272c0-0.168,0.136-0.304,0.304-0.304
					c0.168,0,0.304,0.136,0.304,0.304v3.727C17.724,9.167,17.588,9.303,17.42,9.303z"/>
			</g>
		</g>
	</g>
</g>
</svg>
