<?xml version="1.0" encoding="utf-8"?>
<!-- Generator: Adobe Illustrator 22.0.0, SVG Export Plug-In . SVG Version: 6.00 Build 0)  -->
<svg version="1.1" id="Layer_1" xmlns="http://www.w3.org/2000/svg" xmlns:xlink="http://www.w3.org/1999/xlink" x="0px" y="0px"
	 width="27px" height="27px" viewBox="0 0 27 27" style="enable-background:new 0 0 27 27;" xml:space="preserve">
<style type="text/css">
	.st0{fill:#0064D6;}
</style>
<path class="st0" d="M26.7,13L0.9,0.1C0.7,0,0.4,0,0.2,0.2C0,0.3-0.1,0.6,0,0.8l5,12.7L0,26.2c-0.1,0.2,0,0.5,0.2,0.7
	C0.3,26.9,0.5,27,0.6,27c0.1,0,0.2,0,0.3-0.1L26.7,14c0.2-0.1,0.3-0.3,0.3-0.5C27,13.3,26.9,13.1,26.7,13z M1.8,1.9l22,11H6.1
	L1.8,1.9z M6.1,14.1h17.7l-22,11L6.1,14.1z"/>
</svg>
