<?xml version="1.0" encoding="utf-8"?>
<!-- Generator: Adobe Illustrator 22.0.0, SVG Export Plug-In . SVG Version: 6.00 Build 0)  -->
<svg version="1.1" id="Layer_1" xmlns="http://www.w3.org/2000/svg" xmlns:xlink="http://www.w3.org/1999/xlink" x="0px" y="0px"
	 width="18px" height="18px" viewBox="0 0 18 18" enable-background="new 0 0 18 18" xml:space="preserve">
<g id="Publicar">
	<g id="lapiz">
		<path fill="#818181" d="M17.914,4.183l-4.098-4.098c-0.114-0.114-0.299-0.114-0.413,0L1.155,12.334
			c-0.04,0.04-0.068,0.092-0.08,0.147l-1.069,5.167c-0.02,0.096,0.01,0.196,0.08,0.266C0.141,17.97,0.216,18,0.292,18
			c0.02,0,0.04-0.002,0.059-0.006l5.167-1.069c0.056-0.012,0.107-0.039,0.147-0.08l8.782-8.782l0,0l0,0l3.466-3.466
			C18.029,4.482,18.029,4.297,17.914,4.183z M5.314,16.37l-4.645,0.961l0.961-4.645l8.514-8.514l3.684,3.684L5.314,16.37z
			 M14.241,7.443l-3.684-3.684l3.053-3.053l3.684,3.684L14.241,7.443z"/>
	</g>
	<g id="Trofeo_Boton">
	</g>
	<g id="Cámara_Botón">
	</g>
</g>
</svg>
