<?xml version="1.0" encoding="utf-8"?>
<!-- Generator: Adobe Illustrator 22.0.0, SVG Export Plug-In . SVG Version: 6.00 Build 0)  -->
<svg version="1.1" id="Layer_1" xmlns="http://www.w3.org/2000/svg" xmlns:xlink="http://www.w3.org/1999/xlink" x="0px" y="0px"
	 width="30px" height="30px" viewBox="0 0 30 30" enable-background="new 0 0 30 30" xml:space="preserve">
<path fill="#383A3F" d="M28.354,3.119v23.761c0,0.814-0.66,1.474-1.474,1.474h-6.807V18.013h3.472l0.521-4.032h-3.993v-2.575
	c0-1.167,0.325-1.963,1.998-1.963h2.134V5.84c-0.369-0.049-1.635-0.159-3.109-0.159c-3.077,0-5.185,1.878-5.185,5.327v2.973H12.43
	v4.032h3.482v10.341H3.119c-0.814,0-1.474-0.659-1.474-1.474V3.119c0-0.814,0.659-1.474,1.474-1.474h23.761
	C27.695,1.646,28.354,2.305,28.354,3.119z"/>
</svg>
