<?xml version="1.0" encoding="utf-8"?>
<!-- Generator: Adobe Illustrator 22.0.0, SVG Export Plug-In . SVG Version: 6.00 Build 0)  -->
<svg version="1.1" id="Layer_1" xmlns="http://www.w3.org/2000/svg" xmlns:xlink="http://www.w3.org/1999/xlink" x="0px" y="0px"
	 width="17px" height="22px" viewBox="0 0 17 22" style="enable-background:new 0 0 17 22;" xml:space="preserve">
<style type="text/css">
	.st0{fill:#373B3F;}
</style>
<g>
	<path class="st0" d="M15.19,1.95h-1.985V1.121c0-0.26-0.211-0.47-0.47-0.47s-0.471,0.211-0.471,0.47V1.95H8.971V1.121
		c0-0.26-0.211-0.47-0.47-0.47S8.03,0.862,8.03,1.121V1.95H4.737V1.121c0-0.26-0.211-0.47-0.47-0.47s-0.471,0.211-0.471,0.47V1.95
		H1.81c-0.954,0-1.73,0.776-1.73,1.73v15.939c0,0.954,0.776,1.73,1.73,1.73H15.19c0.954,0,1.73-0.776,1.73-1.73V3.68
		C16.92,2.726,16.144,1.95,15.19,1.95z M15.979,19.619c0,0.435-0.354,0.789-0.789,0.789H1.81c-0.435,0-0.789-0.354-0.789-0.789V3.68
		c0-0.435,0.354-0.789,0.789-0.789h1.987V3.72c0,0.26,0.211,0.471,0.471,0.471s0.47-0.211,0.47-0.471V2.891H8.03V3.72
		c0,0.26,0.211,0.471,0.471,0.471s0.47-0.211,0.47-0.471V2.891h3.293V3.72c0,0.26,0.211,0.471,0.471,0.471s0.47-0.211,0.47-0.471
		V2.891h1.985c0.435,0,0.789,0.354,0.789,0.789V19.619z"/>
	<path class="st0" d="M12.735,12.291H4.267c-0.26,0-0.47,0.211-0.47,0.47s0.211,0.47,0.47,0.47h8.468c0.26,0,0.47-0.211,0.47-0.47
		S12.995,12.291,12.735,12.291z"/>
	<path class="st0" d="M12.735,16.525H4.267c-0.26,0-0.47,0.211-0.47,0.47s0.211,0.47,0.47,0.47h8.468c0.26,0,0.47-0.211,0.47-0.47
		S12.995,16.525,12.735,16.525z"/>
	<path class="st0" d="M12.735,8.055H4.267c-0.26,0-0.47,0.211-0.47,0.47s0.211,0.47,0.47,0.47h8.468c0.26,0,0.47-0.211,0.47-0.47
		S12.995,8.055,12.735,8.055z"/>
</g>
</svg>
