<?xml version="1.0" encoding="utf-8"?>
<!-- Generator: Adobe Illustrator 22.0.0, SVG Export Plug-In . SVG Version: 6.00 Build 0)  -->
<svg version="1.1" id="Layer_1" xmlns="http://www.w3.org/2000/svg" xmlns:xlink="http://www.w3.org/1999/xlink" x="0px" y="0px"
	 width="21px" height="22px" viewBox="0 0 21 22" style="enable-background:new 0 0 21 22;" xml:space="preserve">
<style type="text/css">
	.st0{fill:#353534;}
</style>
<path class="st0" d="M6.268,9.352c1.427,0,2.588-1.161,2.588-2.588S7.695,4.175,6.268,4.175S3.68,5.336,3.68,6.764
	S4.84,9.352,6.268,9.352z M6.268,5.116c0.908,0,1.647,0.739,1.647,1.648c0,0.908-0.739,1.647-1.647,1.647S4.62,7.672,4.62,6.764
	C4.62,5.855,5.359,5.116,6.268,5.116z M20.85,14.971V6.766c0-0.021-0.009-0.041-0.012-0.062c-0.003-0.02-0.006-0.037-0.011-0.057
	c-0.021-0.08-0.055-0.155-0.114-0.214l-5.646-5.645c-0.06-0.059-0.135-0.093-0.214-0.114c-0.021-0.006-0.039-0.009-0.06-0.012
	c-0.02-0.003-0.038-0.012-0.059-0.012H1.875c-0.951,0-1.725,0.773-1.725,1.725v17.25c0,0.951,0.773,1.725,1.725,1.725h17.249
	c0.951,0,1.726-0.773,1.726-1.725v-4.644C20.85,14.978,20.85,14.975,20.85,14.971z M15.204,2.257l4.039,4.038h-3.451
	c-0.324,0-0.588-0.264-0.588-0.587V2.257z M1.875,1.591h12.388v4.117c0,0.843,0.687,1.528,1.529,1.528h4.116v6.603l-4.854-4.854
	c-0.184-0.184-0.482-0.184-0.666,0l-5.677,5.676L6.599,12.55c-0.184-0.184-0.481-0.184-0.665,0l-4.843,4.843V2.375
	C1.091,1.943,1.443,1.591,1.875,1.591z M1.091,19.625v-0.901l5.176-5.176l6.86,6.86H1.875C1.443,20.408,1.091,20.057,1.091,19.625z
	 M19.124,20.408h-4.665l-5.082-5.081l5.344-5.344l5.188,5.188v4.454C19.908,20.057,19.557,20.408,19.124,20.408z"/>
</svg>
