<?xml version="1.0" encoding="utf-8"?>
<!-- Generator: Adobe Illustrator 22.0.0, SVG Export Plug-In . SVG Version: 6.00 Build 0)  -->
<svg version="1.1" id="Layer_1" xmlns="http://www.w3.org/2000/svg" xmlns:xlink="http://www.w3.org/1999/xlink" x="0px" y="0px"
	 width="302px" height="302px" viewBox="0 0 302 302" style="enable-background:new 0 0 302 302;" xml:space="preserve">
<style type="text/css">
	.st0{fill:#E7E7E7;}
	.st1{fill:#B5B4B5;}
</style>
<rect class="st0" width="302" height="302"/>
<path class="st1" d="M123.861,138.26c0,5.151,4.19,9.341,9.341,9.341s9.341-4.19,9.341-9.341s-4.19-9.341-9.341-9.341
	S123.861,133.11,123.861,138.26z M139.147,138.26c0,3.278-2.667,5.945-5.945,5.945c-3.278,0-5.945-2.667-5.945-5.945
	c0-3.278,2.667-5.945,5.945-5.945C136.48,132.315,139.147,134.982,139.147,138.26z M185.825,167.869v-21.967
	c0-0.938-0.76-1.698-1.698-1.698s-1.698,0.76-1.698,1.698v17.897l-17.521-17.521c-0.663-0.663-1.738-0.663-2.401,0l-20.487,20.487
	l-7.622-7.622c-0.663-0.663-1.738-0.663-2.401,0l-17.479,17.479v-54.198c0-1.56,1.269-2.83,2.83-2.83h38.768
	c0.938,0,1.698-0.76,1.698-1.698s-0.76-1.698-1.698-1.698h-38.768c-3.432,0-6.225,2.793-6.225,6.225v62.251
	c0,3.432,2.793,6.225,6.225,6.225H179.6c3.432,0,6.225-2.793,6.225-6.225v-16.742C185.826,167.912,185.826,167.891,185.825,167.869z
	 M114.519,184.675v-3.251l18.679-18.679l24.76,24.76h-40.61C115.789,187.505,114.519,186.235,114.519,184.675z M179.6,187.505
	h-16.84l-18.339-18.339l19.286-19.286l18.722,18.722v16.074C182.43,186.235,181.161,187.505,179.6,187.505z M174.323,111.1
	c-9.127,0-16.553,7.426-16.553,16.553s7.426,16.553,16.553,16.553s16.553-7.426,16.553-16.553S183.45,111.1,174.323,111.1z
	 M174.323,140.81c-7.255,0-13.157-5.902-13.157-13.157s5.902-13.157,13.157-13.157s13.157,5.902,13.157,13.157
	S181.578,140.81,174.323,140.81z M181.963,127.643c0,0.938-0.76,1.698-1.698,1.698h-4.261v4.261c0,0.938-0.76,1.698-1.698,1.698
	s-1.698-0.76-1.698-1.698v-4.261h-4.26c-0.938,0-1.698-0.76-1.698-1.698s0.76-1.698,1.698-1.698h4.26v-4.26
	c0-0.938,0.76-1.698,1.698-1.698s1.698,0.76,1.698,1.698v4.26h4.261C181.202,125.945,181.963,126.705,181.963,127.643z"/>
</svg>
