<?xml version="1.0" encoding="utf-8"?>
<!-- Generator: Adobe Illustrator 22.0.0, SVG Export Plug-In . SVG Version: 6.00 Build 0)  -->
<svg version="1.1" id="Layer_1" xmlns="http://www.w3.org/2000/svg" xmlns:xlink="http://www.w3.org/1999/xlink" x="0px" y="0px"
	 width="20px" height="20px" viewBox="0 0 20 20" style="enable-background:new 0 0 20 20;" xml:space="preserve">
<style type="text/css">
	.st0{fill:#818181;}
</style>
<path class="st0" d="M10,6.101c-2.81,0-5.097,2.287-5.097,5.097c0,2.811,2.287,5.097,5.097,5.097s5.097-2.286,5.097-5.097
	C15.097,8.388,12.81,6.101,10,6.101z M10,15.408c-2.321,0-4.21-1.889-4.21-4.21s1.889-4.21,4.21-4.21s4.21,1.889,4.21,4.21
	S12.321,15.408,10,15.408z M18.125,3.281H14.94l-0.649-1.447c-0.262-0.583-0.844-0.959-1.482-0.959H7.436
	c-0.574,0-1.111,0.308-1.401,0.802L5.093,3.281H1.875c-0.896,0-1.625,0.729-1.625,1.625V17.5c0,0.896,0.729,1.626,1.625,1.626h16.25
	c0.896,0,1.625-0.729,1.625-1.626V4.906C19.75,4.01,19.021,3.281,18.125,3.281z M18.863,17.5c0,0.408-0.331,0.739-0.738,0.739H1.875
	c-0.407,0-0.738-0.331-0.738-0.739V4.906c0-0.407,0.331-0.739,0.738-0.739h3.472c0.157,0,0.303-0.083,0.382-0.219l1.07-1.823
	c0.132-0.225,0.376-0.364,0.637-0.364h5.373c0.29,0,0.555,0.171,0.674,0.436l0.767,1.708c0.071,0.159,0.229,0.262,0.404,0.262h3.472
	c0.407,0,0.738,0.332,0.738,0.739V17.5z"/>
</svg>
