<?xml version="1.0" encoding="utf-8"?>
<!-- Generator: Adobe Illustrator 22.0.0, SVG Export Plug-In . SVG Version: 6.00 Build 0)  -->
<svg version="1.1" id="Layer_1" xmlns="http://www.w3.org/2000/svg" xmlns:xlink="http://www.w3.org/1999/xlink" x="0px" y="0px"
	 width="24px" height="24px" viewBox="0 0 24 24" style="enable-background:new 0 0 24 24;" xml:space="preserve">
<style type="text/css">
	.st0{fill:#818181;}
</style>
<g id="simb41">
</g>
<path class="st0" d="M9.996,6.13c-0.051-0.217,0.084-0.433,0.3-0.483c0.56-0.131,1.131-0.203,1.705-0.195
	c5.562,0,8.679,6.108,8.81,6.368c0.058,0.117,0.056,0.254-0.006,0.369c-0.477,0.893-1.051,1.741-1.706,2.52
	c-0.079,0.095-0.193,0.144-0.308,0.144c-0.092,0-0.184-0.031-0.259-0.094c-0.17-0.143-0.192-0.397-0.049-0.567
	c0.572-0.682,1.08-1.418,1.51-2.193C19.438,11.004,16.553,6.257,12,6.257c-0.5,0.039-1.022,0.058-1.521,0.173
	C10.261,6.483,10.045,6.347,9.996,6.13z M20.734,20.166c0.157,0.157,0.157,0.411,0,0.568c-0.078,0.079-0.182,0.118-0.284,0.118
	s-0.206-0.039-0.284-0.118l-3.658-3.658c-1.33,0.925-2.873,1.444-4.501,1.471c-5.568,0-8.686-6.108-8.816-6.368
	c-0.058-0.117-0.056-0.255,0.006-0.37c0.916-1.709,2.151-3.178,3.649-4.397L3.266,3.835c-0.157-0.157-0.157-0.412,0-0.569
	c0.156-0.157,0.412-0.157,0.568,0l10.067,10.068c0,0,0.001,0,0.001,0.001c0,0,0.001,0.001,0.001,0.001L20.734,20.166z
	 M10.646,13.449c0.371,0.346,0.857,0.529,1.363,0.509c0.376-0.013,0.732-0.136,1.032-0.349l-2.645-2.645
	C9.855,11.728,9.942,12.794,10.646,13.449z M15.927,16.496l-2.317-2.317c-0.448,0.354-0.99,0.563-1.573,0.584
	c-0.032,0.001-0.065,0.002-0.098,0.002c-0.688,0-1.338-0.256-1.843-0.727c-1.035-0.964-1.131-2.551-0.273-3.645l-2.41-2.41
	c-1.389,1.116-2.539,2.46-3.406,4.019c0.555,0.996,3.438,5.742,7.991,5.742C13.412,17.72,14.756,17.277,15.927,16.496z"/>
</svg>
