<?xml version="1.0" encoding="utf-8"?>
<!-- Generator: Adobe Illustrator 22.0.0, SVG Export Plug-In . SVG Version: 6.00 Build 0)  -->
<svg version="1.1" id="Layer_1" xmlns="http://www.w3.org/2000/svg" xmlns:xlink="http://www.w3.org/1999/xlink" x="0px" y="0px"
	 width="21px" height="21px" viewBox="0 0 21 21" style="enable-background:new 0 0 21 21;" xml:space="preserve">
<style type="text/css">
	.st0{fill:#383A3F;}
</style>
<g id="subirf5">
	<g>
		<path class="st0" d="M10.6,0.1C4.8,0.1,0.2,4.7,0.1,10.4c0,5.7,4.6,10.4,10.3,10.5c5.7,0,10.4-4.6,10.5-10.3
			C20.9,4.8,16.3,0.2,10.6,0.1z M10.4,19.9c-5.2,0-9.4-4.3-9.4-9.5S5.4,1,10.6,1.1s9.4,4.3,9.4,9.5S15.6,20,10.4,19.9z"/>
		<path class="st0" d="M14.5,10.1L11,10l0-3.5c0-0.3-0.2-0.5-0.5-0.5c-0.3,0-0.5,0.2-0.5,0.5l0,3.5l-3.5,0c-0.3,0-0.5,0.2-0.5,0.5
			c0,0.3,0.2,0.5,0.5,0.5l3.5,0l0,3.5c0,0.3,0.2,0.5,0.5,0.5c0.3,0,0.5-0.2,0.5-0.5l0-3.5l3.5,0c0.3,0,0.5-0.2,0.5-0.5
			C14.9,10.3,14.7,10.1,14.5,10.1z"/>
	</g>
</g>
</svg>
