<?xml version="1.0" encoding="utf-8"?>
<!-- Generator: Adobe Illustrator 22.0.0, SVG Export Plug-In . SVG Version: 6.00 Build 0)  -->
<svg version="1.1" id="Layer_1" xmlns="http://www.w3.org/2000/svg" xmlns:xlink="http://www.w3.org/1999/xlink" x="0px" y="0px"
	 width="20px" height="20px" viewBox="0 0 20 20" style="enable-background:new 0 0 20 20;" xml:space="preserve">
<style type="text/css">
	.st0{fill:#0064DC;}
</style>
<g id="seemore">
	<g>
		<path class="st0" d="M10,0C4.486,0,0,4.486,0,10s4.486,10,10,10s10-4.486,10-10S15.514,0,10,0z M10,19.091
			c-5.013,0-9.091-4.078-9.091-9.091c0-5.013,4.078-9.091,9.091-9.091S19.091,4.987,19.091,10
			C19.091,15.013,15.013,19.091,10,19.091z"/>
		<path class="st0" d="M13.147,10.028l-2.693,2.693V6.013c0-0.251-0.203-0.454-0.455-0.454S9.545,5.762,9.545,6.013v6.708
			l-2.693-2.693c-0.177-0.177-0.465-0.177-0.643,0c-0.177,0.178-0.177,0.465,0,0.643l3.469,3.469
			c0.042,0.042,0.092,0.075,0.148,0.098c0.056,0.023,0.115,0.035,0.174,0.035s0.118-0.012,0.174-0.035
			c0.056-0.023,0.106-0.056,0.148-0.098l3.469-3.469c0.177-0.177,0.177-0.465,0-0.643C13.613,9.851,13.325,9.851,13.147,10.028z"/>
	</g>
</g>
</svg>
