<?xml version="1.0" encoding="utf-8"?>
<!-- Generator: Adobe Illustrator 22.0.0, SVG Export Plug-In . SVG Version: 6.00 Build 0)  -->
<svg version="1.1" id="Layer_1" xmlns="http://www.w3.org/2000/svg" xmlns:xlink="http://www.w3.org/1999/xlink" x="0px" y="0px"
	 width="30px" height="30px" viewBox="0 0 30 30" enable-background="new 0 0 30 30" xml:space="preserve">
<path fill="#383A3F" d="M15,8.135c-3.778,0-6.865,3.087-6.865,6.865s3.087,6.865,6.865,6.865s6.867-3.087,6.867-6.865
	S18.778,8.135,15,8.135z M15,19.573c-2.54,0-4.573-2.033-4.573-4.573S12.46,10.427,15,10.427S19.575,12.46,19.575,15
	S17.54,19.573,15,19.573z M23.776,7.855c0,0.885-0.717,1.603-1.603,1.603s-1.603-0.717-1.603-1.603s0.717-1.603,1.603-1.603
	S23.776,6.97,23.776,7.855z M20.628,1.668H9.372c-4.267,0-7.737,3.472-7.737,7.738v11.189c0,4.267,3.47,7.737,7.737,7.737h11.256
	c4.267,0,7.737-3.47,7.737-7.737V9.406C28.365,5.14,24.895,1.668,20.628,1.668z M26.074,20.596c0,3.037-2.41,5.444-5.446,5.444
	H9.372c-3.037,0-5.444-2.408-5.444-5.444V9.406c0-3.037,2.408-5.446,5.444-5.446h11.256c3.037,0,5.446,2.409,5.446,5.446V20.596z"/>
</svg>
