<?xml version="1.0" encoding="utf-8"?>
<!-- Generator: Adobe Illustrator 22.0.0, SVG Export Plug-In . SVG Version: 6.00 Build 0)  -->
<svg version="1.1" id="Layer_1" xmlns="http://www.w3.org/2000/svg" xmlns:xlink="http://www.w3.org/1999/xlink" x="0px" y="0px"
	 width="27px" height="50px" viewBox="0 0 27 50" style="enable-background:new 0 0 27 50;" xml:space="preserve">
<style type="text/css">
	.st0{fill:#FFFFFF;}
	.st1{fill:#0064DB;}
</style>
<path class="st0" d="M26,12.5c-0.3-0.3-0.6-0.5-1-0.6l0.9-0.9c0.4-0.4,0.7-1,0.7-1.6s-0.2-1.2-0.7-1.6c-0.3-0.3-0.6-0.5-1-0.6
	c0.4-0.4,0.6-0.9,0.6-1.5s-0.2-1.2-0.7-1.6c-0.9-0.9-2.2-0.9-3.1-0.1c-0.1-0.4-0.3-0.7-0.6-1c-0.4-0.4-1-0.7-1.6-0.7
	S18.3,2.5,17.9,3l-0.2,0.2c0.1-0.5,0.1-1,0-1.4c-0.2-0.6-0.6-1-1.2-1.3c-1.1-0.5-2.4,0-3,1c-0.2-0.3-0.5-0.6-0.9-0.7
	c-0.6-0.3-1.2-0.3-1.7-0.1c-0.6,0.2-1,0.6-1.3,1.2L8.6,4C8.5,4,8.4,3.9,8.3,3.9C8,3.8,7.7,4,7.6,4.3l-2,5.7C5.4,9,5,8,4.3,7.2
	C3.5,6.3,2.3,5.9,0.9,6C0.6,6.1,0.4,6.3,0.4,6.6l0.2,8.7l0,0c-0.1,3.6,1.9,6.9,5.2,8.4c1.2,0.5,2.4,0.8,3.7,0.8c0.3,0,0.7,0,1-0.1
	c0.8,0.2,1.6,0.3,2.4,0.3c2.4,0,4.6-0.9,6.3-2.6l0,0l6.5-6.5c0.4-0.4,0.7-1,0.7-1.6C26.6,13.5,26.4,12.9,26,12.5z M14.4,2.1
	c0.3-0.6,0.9-0.8,1.5-0.6c0.6,0.3,0.8,0.9,0.6,1.5l-1.1,2.5l-4.1,4.1c0-0.2,0.1-0.5,0.1-0.7l2.3-5.1c0-0.1,0-0.1,0.1-0.2L14.4,2.1z
	 M10.6,2.4c0.1-0.3,0.4-0.5,0.6-0.6c0.3-0.1,0.6-0.1,0.9,0c0.3,0.1,0.5,0.3,0.6,0.6c0.1,0.2,0.1,0.5,0,0.8l-1.5,3.3
	c0-0.1-0.1-0.2-0.1-0.3C10.8,5.5,10.3,5,9.7,4.6L10.6,2.4z M6.3,22.7c-2.9-1.3-4.7-4.2-4.6-7.4l0,0l0,0L1.6,7.2C2.4,7.2,3,7.5,3.5,8
	c1.5,1.5,1.2,4.7,1.2,4.7v0.1c-1.2,3.3-0.4,6.9,2.1,9.4c0.4,0.4,0.8,0.7,1.2,1C7.4,23.1,6.8,23,6.3,22.7z M25.1,14.9l-6.5,6.5l0,0
	c-3,3-8,3-11,0c-2.2-2.2-2.9-5.6-1.7-8.5l0,0l0,0l2.6-7.7C9.2,5.5,9.7,6,10,6.6s0.3,1.3,0.3,2l0,0c-0.1,1.5-0.8,2.8-0.8,2.8l0,0v0.1
	v0.1v0.1v0.1v0.1c0,0,0,0.1,0.1,0.1l0,0c0,0,0.1,0,0.1,0.1c0,0,0,0,0.1,0.1l0,0h0.1H10l0,0h0.1h0.1c0,0,0.1,0,0.1-0.1
	c0,0,0.1,0,0.1-0.1l0,0l5.7-5.7c0.1-0.1,0.2-0.1,0.3-0.3l2.3-2.3c0.2-0.2,0.5-0.3,0.8-0.3s0.6,0.1,0.8,0.3c0.4,0.4,0.4,1.1,0.1,1.5
	l-5.2,5.2c-0.2,0.2-0.2,0.6,0,0.8l0,0l0,0c0.2,0.2,0.6,0.2,0.8,0l5.1-5.1c0,0,0.1-0.1,0.1-0.2l1.2-1.2c0.4-0.4,1.1-0.4,1.6,0
	c0.2,0.2,0.3,0.5,0.3,0.8S24.2,6.1,24,6.3l-1.2,1.2l-0.1,0.1l-5.1,5.1c-0.2,0.2-0.2,0.6,0,0.8l0,0l0,0c0.1,0.1,0.3,0.2,0.4,0.2
	s0.3-0.1,0.4-0.2l5.2-5.2c0.4-0.4,1.1-0.4,1.5,0c0.2,0.2,0.3,0.5,0.3,0.8s-0.1,0.6-0.3,0.8l-2.2,2.2l-0.1,0.1L20,15
	c-0.2,0.2-0.2,0.4-0.1,0.6c0,0.1,0.1,0.1,0.1,0.2c0.1,0.1,0.3,0.2,0.4,0.2s0.3-0.1,0.4-0.2l2.9-2.9c0.2-0.2,0.5-0.3,0.7-0.3
	c0.3,0,0.6,0.1,0.8,0.3c0.2,0.2,0.3,0.5,0.3,0.8C25.5,14.4,25.3,14.7,25.1,14.9z"/>
<path class="st1" d="M26,37.5c-0.3-0.3-0.6-0.5-1-0.6l0.9-0.9c0.4-0.4,0.7-1,0.7-1.6c0-0.6-0.2-1.2-0.7-1.6c-0.3-0.3-0.6-0.5-1-0.6
	c0.4-0.4,0.6-0.9,0.6-1.5c0-0.6-0.2-1.2-0.7-1.6c-0.9-0.9-2.2-0.9-3.1-0.1c-0.1-0.4-0.3-0.7-0.6-1c-0.4-0.4-1-0.7-1.6-0.7
	s-1.2,0.2-1.6,0.7l-0.2,0.2c0.1-0.5,0.1-1,0-1.4c-0.2-0.6-0.6-1-1.2-1.3c-1.1-0.5-2.4,0-3,1c-0.2-0.3-0.5-0.6-0.9-0.7
	c-0.6-0.3-1.2-0.3-1.7-0.1c-0.6,0.2-1,0.6-1.3,1.2l-1,2.1c-0.1,0-0.2-0.1-0.3-0.1C8,28.8,7.7,29,7.6,29.3l-2,5.7
	c-0.2-1-0.6-2-1.3-2.8c-0.8-0.9-2-1.3-3.4-1.2c-0.3,0.1-0.5,0.3-0.5,0.6l0.2,8.7l0,0c-0.1,3.6,1.9,6.9,5.2,8.4
	c1.2,0.5,2.4,0.8,3.7,0.8c0.3,0,0.7,0,1-0.1c0.8,0.2,1.6,0.3,2.4,0.3c2.4,0,4.6-0.9,6.3-2.6l0,0l6.5-6.5c0.4-0.4,0.7-1,0.7-1.6
	C26.6,38.5,26.4,37.9,26,37.5z M14.4,27.1c0.3-0.6,0.9-0.8,1.5-0.6c0.6,0.3,0.8,0.9,0.6,1.5l-1.1,2.5l-4.1,4.1
	c0-0.2,0.1-0.5,0.1-0.7l2.3-5.1c0-0.1,0-0.1,0.1-0.2L14.4,27.1z M10.6,27.4c0.1-0.3,0.4-0.5,0.6-0.6c0.3-0.1,0.6-0.1,0.9,0
	c0.3,0.1,0.5,0.3,0.6,0.6c0.1,0.2,0.1,0.5,0,0.8l-1.5,3.3c0-0.1-0.1-0.2-0.1-0.3c-0.3-0.7-0.8-1.2-1.4-1.6L10.6,27.4z M6.3,47.7
	c-2.9-1.3-4.7-4.2-4.6-7.4l0,0l0,0l-0.1-8.1c0.8,0,1.4,0.3,1.9,0.8c1.5,1.5,1.2,4.7,1.2,4.7v0.1c-1.2,3.3-0.4,6.9,2.1,9.4
	c0.4,0.4,0.8,0.7,1.2,1C7.4,48.1,6.8,48,6.3,47.7z M25.1,39.9l-6.5,6.5l0,0c-3,3-8,3-11,0c-2.2-2.2-2.9-5.6-1.7-8.5l0,0l0,0l2.6-7.7
	c0.7,0.3,1.2,0.8,1.5,1.4s0.3,1.3,0.3,2l0,0c-0.1,1.5-0.8,2.8-0.8,2.8l0,0v0.1v0.1v0.1v0.1v0.1c0,0,0,0.1,0.1,0.1l0,0
	c0,0,0.1,0,0.1,0.1c0,0,0,0,0.1,0.1l0,0h0.1H10l0,0h0.1h0.1c0,0,0.1,0,0.1-0.1c0,0,0.1,0,0.1-0.1l0,0l5.7-5.7
	c0.1-0.1,0.2-0.1,0.3-0.3l2.3-2.3c0.2-0.2,0.5-0.3,0.8-0.3s0.6,0.1,0.8,0.3c0.4,0.4,0.4,1.1,0.1,1.5l-5.2,5.2
	c-0.2,0.2-0.2,0.6,0,0.8l0,0l0,0c0.2,0.2,0.6,0.2,0.8,0l5.1-5.1c0,0,0.1-0.1,0.1-0.2l1.2-1.2c0.4-0.4,1.1-0.4,1.6,0
	c0.2,0.2,0.3,0.5,0.3,0.8c0,0.3-0.1,0.6-0.3,0.8l-1.2,1.2l-0.1,0.1l-5.1,5.1c-0.2,0.2-0.2,0.6,0,0.8l0,0l0,0
	c0.1,0.1,0.3,0.2,0.4,0.2s0.3-0.1,0.4-0.2l5.2-5.2c0.4-0.4,1.1-0.4,1.5,0c0.2,0.2,0.3,0.5,0.3,0.8c0,0.3-0.1,0.6-0.3,0.8l-2.2,2.2
	l-0.1,0.1L20,40c-0.2,0.2-0.2,0.4-0.1,0.6c0,0.1,0.1,0.1,0.1,0.2c0.1,0.1,0.3,0.2,0.4,0.2s0.3-0.1,0.4-0.2l2.9-2.9
	c0.2-0.2,0.5-0.3,0.7-0.3c0.3,0,0.6,0.1,0.8,0.3c0.2,0.2,0.3,0.5,0.3,0.8C25.5,39.4,25.3,39.7,25.1,39.9z"/>
</svg>
