<?xml version="1.0" encoding="utf-8"?>
<!-- Generator: Adobe Illustrator 22.0.0, SVG Export Plug-In . SVG Version: 6.00 Build 0)  -->
<svg version="1.1" id="Layer_1" xmlns="http://www.w3.org/2000/svg" xmlns:xlink="http://www.w3.org/1999/xlink" x="0px" y="0px"
	 width="21px" height="42px" viewBox="0 0 21 42" style="enable-background:new 0 0 21 42;" xml:space="preserve">
<style type="text/css">
	.st0{fill:#0064DC;}
	.st1{fill:#818181;}
</style>
<path class="st0" d="M20.4,31.4c-0.2-0.2-0.5-0.4-0.8-0.5l0.7-0.7c0.3-0.3,0.5-0.8,0.5-1.3s-0.2-0.9-0.5-1.3
	c-0.2-0.2-0.5-0.4-0.8-0.5c0.3-0.3,0.5-0.8,0.5-1.2c0-0.5-0.2-0.9-0.5-1.3c-0.7-0.7-1.8-0.7-2.5-0.1c-0.1-0.3-0.2-0.6-0.5-0.8
	c-0.3-0.3-0.8-0.5-1.3-0.5s-0.9,0.2-1.3,0.5L13.8,24c0.1-0.4,0.1-0.8,0-1.1c-0.2-0.5-0.5-0.8-0.9-1c-0.9-0.4-1.9,0-2.4,0.8
	c-0.2-0.2-0.4-0.5-0.7-0.6c-0.4-0.2-0.9-0.2-1.4-0.1c-0.5,0.2-0.8,0.5-1,0.9l-0.8,1.7c-0.1,0-0.1-0.1-0.2-0.1
	c-0.2-0.1-0.5,0.1-0.6,0.3l-1.6,4.6c-0.2-0.8-0.5-1.6-1.1-2.2c-0.7-0.7-1.6-1-2.7-0.9c-0.2,0-0.4,0.2-0.4,0.5l0.2,7c0,0,0,0,0,0
	c-0.1,2.9,1.6,5.5,4.2,6.7c0.9,0.4,2,0.6,3,0.6c0.3,0,0.6,0,0.8-0.1c0.6,0.2,1.3,0.3,1.9,0.3c1.9,0,3.7-0.7,5.1-2.1c0,0,0,0,0,0
	l5.2-5.2c0.3-0.3,0.5-0.8,0.5-1.3S20.8,31.8,20.4,31.4z M11.3,23.1c0.2-0.4,0.7-0.6,1.2-0.4c0.4,0.2,0.6,0.7,0.4,1.2l-0.9,2
	l-3.3,3.3c0-0.2,0.1-0.4,0.1-0.6l1.9-4.1c0-0.1,0-0.1,0.1-0.2L11.3,23.1z M8.2,23.4c0.1-0.2,0.3-0.4,0.5-0.5c0.2-0.1,0.5-0.1,0.7,0
	c0.2,0.1,0.4,0.3,0.5,0.5c0.1,0.2,0.1,0.4,0,0.6l-1.2,2.6c0-0.1-0.1-0.2-0.1-0.3c-0.2-0.5-0.6-1-1.1-1.3L8.2,23.4z M4.8,39.6
	c-2.3-1-3.7-3.3-3.6-5.9c0,0,0,0,0,0c0,0,0,0,0,0L1,27.2c0.6,0,1.1,0.2,1.5,0.7c1.2,1.2,0.9,3.7,0.9,3.8c0,0,0,0.1,0,0.1
	c-0.9,2.6-0.3,5.5,1.7,7.5C5.4,39.5,5.7,39.8,6,40C5.6,39.9,5.2,39.8,4.8,39.6z M19.8,33.3l-5.2,5.2c0,0,0,0,0,0
	c-2.4,2.4-6.4,2.4-8.8,0c-1.8-1.8-2.3-4.4-1.4-6.8c0,0,0,0,0,0c0,0,0,0,0,0l2.1-6.2c0.6,0.3,1,0.6,1.2,1.1c0.7,1.6-0.4,3.8-0.4,3.9
	c0,0,0,0,0,0c0,0,0,0.1,0,0.1c0,0,0,0.1,0,0.1c0,0,0,0.1,0,0.1c0,0,0,0.1,0,0.1c0,0,0,0,0,0.1c0,0,0,0.1,0.1,0.1c0,0,0,0,0,0
	c0,0,0,0,0.1,0c0,0,0,0,0.1,0c0,0,0,0,0,0c0,0,0.1,0,0.1,0c0,0,0.1,0,0.1,0c0,0,0,0,0,0c0,0,0,0,0.1,0c0,0,0.1,0,0.1,0
	c0,0,0,0,0.1,0c0,0,0.1,0,0.1-0.1c0,0,0,0,0,0l4.5-4.5c0.1,0,0.2-0.1,0.2-0.2l1.9-1.9c0.2-0.2,0.4-0.3,0.6-0.3s0.5,0.1,0.6,0.3
	c0.3,0.3,0.3,0.8,0,1.2l-4.1,4.1c-0.2,0.2-0.2,0.5,0,0.7c0,0,0,0,0,0c0,0,0,0,0,0c0.2,0.2,0.5,0.2,0.7,0l4.1-4.1
	c0,0,0.1-0.1,0.1-0.1l0.9-0.9c0.3-0.3,0.9-0.3,1.3,0c0.2,0.2,0.3,0.4,0.3,0.6s-0.1,0.5-0.3,0.6l-0.9,0.9c0,0-0.1,0.1-0.1,0.1
	l-4.1,4.1c-0.2,0.2-0.2,0.5,0,0.7c0,0,0,0,0,0c0,0,0,0,0,0c0.1,0.1,0.2,0.1,0.3,0.1s0.2,0,0.3-0.1l4.1-4.1c0.4-0.3,0.9-0.3,1.2,0
	c0.2,0.2,0.3,0.4,0.3,0.6c0,0.2-0.1,0.5-0.3,0.6L18,31.3c0,0-0.1,0-0.1,0.1l-2.2,2.2c-0.1,0.1-0.2,0.3-0.1,0.5
	c0,0.1,0.1,0.1,0.1,0.2c0.1,0.1,0.2,0.1,0.3,0.1c0.1,0,0.2,0,0.3-0.1l2.3-2.3c0.2-0.1,0.4-0.2,0.6-0.2c0.2,0,0.5,0.1,0.6,0.3
	c0.2,0.2,0.3,0.4,0.3,0.6S19.9,33.2,19.8,33.3z"/>
<path class="st1" d="M20.4,10.4c-0.2-0.2-0.5-0.4-0.8-0.5l0.7-0.7c0.3-0.3,0.5-0.8,0.5-1.3S20.7,7,20.3,6.7
	c-0.2-0.2-0.5-0.4-0.8-0.5C19.8,5.9,20,5.5,20,5c0-0.5-0.2-0.9-0.5-1.3C18.8,3.1,17.7,3,17,3.7c-0.1-0.3-0.2-0.6-0.5-0.8
	c-0.3-0.3-0.8-0.5-1.3-0.5S14.3,2.5,14,2.9L13.8,3c0.1-0.4,0.1-0.8,0-1.1c-0.2-0.5-0.5-0.8-0.9-1c-0.9-0.4-1.9,0-2.4,0.8
	c-0.2-0.2-0.4-0.5-0.7-0.6C9.3,0.9,8.8,0.9,8.4,1C7.9,1.2,7.6,1.5,7.4,2L6.6,3.7c-0.1,0-0.1-0.1-0.2-0.1C6.1,3.5,5.9,3.6,5.8,3.9
	L4.2,8.4C4.1,7.6,3.8,6.8,3.2,6.2c-0.7-0.7-1.6-1-2.7-0.9C0.2,5.3,0,5.5,0,5.7l0.2,7c0,0,0,0,0,0c-0.1,2.9,1.6,5.5,4.2,6.7
	c0.9,0.4,2,0.6,3,0.6c0.3,0,0.6,0,0.8-0.1c0.6,0.2,1.3,0.3,1.9,0.3c1.9,0,3.7-0.7,5.1-2.1c0,0,0,0,0,0l5.2-5.2
	c0.3-0.3,0.5-0.8,0.5-1.3S20.8,10.8,20.4,10.4z M11.3,2.1c0.2-0.4,0.7-0.6,1.2-0.4c0.4,0.2,0.6,0.7,0.4,1.2l-0.9,2L8.7,8.1
	c0-0.2,0.1-0.4,0.1-0.6l1.9-4.1c0-0.1,0-0.1,0.1-0.2L11.3,2.1z M8.2,2.4C8.3,2.1,8.5,2,8.7,1.9c0.2-0.1,0.5-0.1,0.7,0
	C9.6,2,9.8,2.2,9.8,2.4c0.1,0.2,0.1,0.4,0,0.6L8.6,5.6c0-0.1-0.1-0.2-0.1-0.3c-0.2-0.5-0.6-1-1.1-1.3L8.2,2.4z M4.8,18.6
	c-2.3-1-3.7-3.3-3.6-5.9c0,0,0,0,0,0c0,0,0,0,0,0L1,6.2c0.6,0,1.1,0.2,1.5,0.7c1.2,1.2,0.9,3.7,0.9,3.8c0,0,0,0.1,0,0.1
	c-0.9,2.6-0.3,5.5,1.7,7.5C5.4,18.5,5.7,18.8,6,19C5.6,18.9,5.2,18.8,4.8,18.6z M19.8,12.3l-5.2,5.2c0,0,0,0,0,0
	c-2.4,2.4-6.4,2.4-8.8,0c-1.8-1.8-2.3-4.4-1.4-6.8c0,0,0,0,0,0c0,0,0,0,0,0l2.1-6.2c0.6,0.3,1,0.6,1.2,1.1c0.7,1.6-0.4,3.8-0.4,3.9
	c0,0,0,0,0,0c0,0,0,0.1,0,0.1c0,0,0,0.1,0,0.1c0,0,0,0.1,0,0.1c0,0,0,0.1,0,0.1c0,0,0,0,0,0.1c0,0,0,0.1,0.1,0.1c0,0,0,0,0,0
	c0,0,0,0,0.1,0c0,0,0,0,0.1,0c0,0,0,0,0,0c0,0,0.1,0,0.1,0c0,0,0.1,0,0.1,0c0,0,0,0,0,0c0,0,0,0,0.1,0c0,0,0.1,0,0.1,0
	c0,0,0,0,0.1,0c0,0,0.1,0,0.1-0.1c0,0,0,0,0,0l4.5-4.5c0.1,0,0.2-0.1,0.2-0.2l1.9-1.9c0.2-0.2,0.4-0.3,0.6-0.3s0.5,0.1,0.6,0.3
	c0.3,0.3,0.3,0.8,0,1.2l-4.1,4.1c-0.2,0.2-0.2,0.5,0,0.7c0,0,0,0,0,0c0,0,0,0,0,0c0.2,0.2,0.5,0.2,0.7,0l4.1-4.1
	c0,0,0.1-0.1,0.1-0.1l0.9-0.9c0.3-0.3,0.9-0.3,1.3,0C19,4.6,19.1,4.8,19.1,5S19,5.5,18.8,5.7l-0.9,0.9c0,0-0.1,0.1-0.1,0.1l-4.1,4.1
	c-0.2,0.2-0.2,0.5,0,0.7c0,0,0,0,0,0c0,0,0,0,0,0c0.1,0.1,0.2,0.1,0.3,0.1s0.2,0,0.3-0.1l4.1-4.1c0.4-0.3,0.9-0.3,1.2,0
	c0.2,0.2,0.3,0.4,0.3,0.6c0,0.2-0.1,0.5-0.3,0.6L18,10.3c0,0-0.1,0-0.1,0.1l-2.2,2.2c-0.1,0.1-0.2,0.3-0.1,0.5
	c0,0.1,0.1,0.1,0.1,0.2c0.1,0.1,0.2,0.1,0.3,0.1c0.1,0,0.2,0,0.3-0.1l2.3-2.3c0.2-0.1,0.4-0.2,0.6-0.2c0.2,0,0.5,0.1,0.6,0.3
	s0.3,0.4,0.3,0.6S19.9,12.2,19.8,12.3z"/>
</svg>
