<?xml version="1.0" encoding="utf-8"?>
<!-- Generator: Adobe Illustrator 22.0.0, SVG Export Plug-In . SVG Version: 6.00 Build 0)  -->
<svg version="1.1" id="Layer_1" xmlns="http://www.w3.org/2000/svg" xmlns:xlink="http://www.w3.org/1999/xlink" x="0px" y="0px"
	 width="18px" height="22px" viewBox="0 0 18 22" style="enable-background:new 0 0 18 22;" xml:space="preserve">
<style type="text/css">
	.st0{fill:#383A3F;}
</style>
<g>
	<path class="st0" d="M6.2,6.5c-1.5,1.5-1.5,4,0,5.6C7,12.8,8,13.2,9,13.2s2-0.4,2.8-1.2c0.7-0.7,1.2-1.7,1.2-2.8s-0.4-2-1.2-2.8
		C10.2,5,7.8,5,6.2,6.5z M11.2,11.5c-1.2,1.2-3.2,1.2-4.4,0s-1.2-3.2,0-4.4C7.4,6.5,8.2,6.2,9,6.2c0.8,0,1.6,0.3,2.2,0.9
		C12.4,8.3,12.4,10.3,11.2,11.5z"/>
	<path class="st0" d="M15.1,3.2c-3.4-3.4-8.9-3.4-12.2,0C1.3,4.8,0.4,7,0.4,9.3c0,2.3,0.9,4.5,2.5,6.1c0,0,0,0,0,0l5.8,5.8
		c0.1,0.1,0.2,0.1,0.3,0.1s0.2,0,0.3-0.1l5.8-5.8c0,0,0,0,0,0c1.6-1.6,2.5-3.8,2.5-6.1C17.6,7,16.7,4.8,15.1,3.2z M14.5,14.8
		C14.5,14.8,14.5,14.8,14.5,14.8C14.5,14.8,14.5,14.8,14.5,14.8L9,20.4l-5.5-5.5c0,0,0,0,0,0C2,13.3,1.2,11.4,1.2,9.3S2,5.2,3.5,3.8
		c3.1-3.1,8-3.1,11.1,0c1.5,1.5,2.3,3.4,2.3,5.5S16,13.3,14.5,14.8z"/>
</g>
</svg>
