<?xml version="1.0" encoding="utf-8"?>
<!-- Generator: Adobe Illustrator 22.0.0, SVG Export Plug-In . SVG Version: 6.00 Build 0)  -->
<svg version="1.1" id="Layer_1" xmlns="http://www.w3.org/2000/svg" xmlns:xlink="http://www.w3.org/1999/xlink" x="0px" y="0px"
	 width="12px" height="15px" viewBox="0 0 12 15" style="enable-background:new 0 0 12 15;" xml:space="preserve">
<style type="text/css">
	.st0{fill:#818181;}
</style>
<path class="st0" d="M10.683,4.988h-0.77V4.163C9.913,2.005,8.158,0.25,6,0.25S2.087,2.005,2.087,4.163v0.825h-0.77
	c-0.546,0-0.99,0.444-0.99,0.991v7.781c0,0.546,0.444,0.991,0.99,0.991h9.365c0.546,0,0.991-0.444,0.991-0.991V5.978
	C11.673,5.432,11.229,4.988,10.683,4.988z M2.746,4.163c0-1.794,1.46-3.254,3.254-3.254s3.254,1.46,3.254,3.254v0.825H2.746V4.163z
	 M11.014,13.759c0,0.183-0.149,0.331-0.331,0.331H1.317c-0.183,0-0.331-0.149-0.331-0.331V5.978c0-0.183,0.149-0.331,0.331-0.331
	h1.099h7.167h1.099c0.183,0,0.331,0.149,0.331,0.331V13.759z M6.33,8.383v2.966c0,0.182-0.148,0.33-0.33,0.33
	c-0.182,0-0.33-0.148-0.33-0.33V8.383c0-0.182,0.148-0.33,0.33-0.33C6.183,8.054,6.33,8.201,6.33,8.383z"/>
</svg>
