<?xml version="1.0" encoding="utf-8"?>
<!-- Generator: Adobe Illustrator 22.0.0, SVG Export Plug-In . SVG Version: 6.00 Build 0)  -->
<svg version="1.1" id="Layer_1" xmlns="http://www.w3.org/2000/svg" xmlns:xlink="http://www.w3.org/1999/xlink" x="0px" y="0px"
	 width="103px" height="30px" viewBox="0 0 103 30" style="enable-background:new 0 0 103 30;" xml:space="preserve">
<style type="text/css">
	.st0{fill:#0064DB;}
</style>
<g>
	<path class="st0" d="M5.3,0L0.1,30h97.6l5.3-30L5.3,0z M96.1,28.5l-94,0l4.8-27h94L96.1,28.5z"/>
	<g>
		<path class="st0" d="M24.8,17.1c0-0.2,0-0.4-0.1-0.5c-0.1-0.1-0.2-0.3-0.3-0.4c-0.1-0.1-0.3-0.2-0.5-0.3c-0.2-0.1-0.4-0.1-0.5-0.2
			c-0.2-0.1-0.4-0.2-0.6-0.3c-0.2-0.1-0.4-0.2-0.6-0.3c-0.2-0.1-0.4-0.3-0.5-0.4c-0.2-0.1-0.3-0.3-0.4-0.5c-0.1-0.2-0.2-0.4-0.3-0.6
			c-0.1-0.2-0.1-0.5-0.1-0.7c0-0.3,0.1-0.6,0.2-0.8c0.1-0.2,0.2-0.5,0.4-0.7c0.2-0.2,0.4-0.4,0.6-0.5c0.2-0.1,0.5-0.3,0.7-0.4
			c0.3-0.1,0.5-0.2,0.8-0.2c0.3,0,0.5-0.1,0.8-0.1c0.4,0,0.8,0.1,1.2,0.2s0.7,0.3,0.9,0.6c0.3,0.2,0.5,0.5,0.6,0.9
			c0.1,0.3,0.2,0.7,0.2,1.2l-1.8,0c0-0.4-0.1-0.7-0.3-1c-0.2-0.2-0.5-0.3-0.9-0.4c-0.2,0-0.4,0-0.5,0.1c-0.2,0-0.3,0.1-0.5,0.2
			c-0.1,0.1-0.3,0.2-0.4,0.3c-0.1,0.1-0.2,0.3-0.2,0.5c0,0.2,0,0.4,0.1,0.5c0.1,0.1,0.2,0.3,0.4,0.4c0.2,0.1,0.3,0.2,0.5,0.2
			c0.2,0.1,0.3,0.1,0.5,0.2c0.3,0.1,0.7,0.3,1,0.4c0.3,0.2,0.6,0.4,0.8,0.6c0.2,0.2,0.4,0.5,0.6,0.8c0.1,0.3,0.2,0.7,0.2,1.1
			c0,0.3-0.1,0.6-0.2,0.8c-0.1,0.2-0.2,0.5-0.4,0.7c-0.2,0.2-0.4,0.4-0.6,0.5c-0.2,0.1-0.5,0.3-0.7,0.3c-0.3,0.1-0.5,0.2-0.8,0.2
			c-0.3,0-0.5,0.1-0.8,0.1c-0.5,0-0.9-0.1-1.3-0.2s-0.7-0.3-1-0.6c-0.3-0.3-0.5-0.6-0.7-0.9c-0.2-0.4-0.2-0.8-0.2-1.3l1.8,0
			c0,0.5,0.1,0.9,0.4,1.1c0.3,0.2,0.6,0.4,1.1,0.4c0.2,0,0.4,0,0.5-0.1c0.2,0,0.3-0.1,0.5-0.2c0.1-0.1,0.3-0.2,0.4-0.3
			C24.7,17.5,24.8,17.3,24.8,17.1z"/>
		<path class="st0" d="M35.5,12h-2.7l-1.3,7.5h-1.8l1.3-7.5h-2.7l0.3-1.5h7.2L35.5,12z"/>
		<path class="st0" d="M39.9,17.7h-3.2l-0.9,1.9h-2l4.8-9.1h1.7l1.7,9.1h-1.9L39.9,17.7z M37.5,16.2h2.2l-0.5-3.4L37.5,16.2z"/>
		<path class="st0" d="M47,10.5l1.1,6.6l3.4-6.6H54l-1.6,9.1h-1.8L51,17l0.9-4l-3.5,6.6h-1.3l-1.2-6.8l-0.6,4.5l-0.4,2.4h-1.8
			l1.6-9.1H47z"/>
		<path class="st0" d="M56.1,19.6h-1.8l1.6-9.1h1.8L56.1,19.6z"/>
		<path class="st0" d="M65.2,19.6h-1.8l-2.5-6l-1.1,6h-1.8l1.6-9.1h1.8l2.5,6.1l1.1-6.1h1.8L65.2,19.6z"/>
		<path class="st0" d="M73,15.6h-3.5l-0.4,2.4h4.1L73,19.6H67l1.6-9.1h5.9L74.2,12h-4.1l-0.4,2.2h3.5L73,15.6z"/>
		<path class="st0" d="M78.6,16.2h-1.5l-0.6,3.3h-1.8l1.6-9.1l3.2,0c0.4,0,0.8,0.1,1.2,0.2c0.4,0.1,0.7,0.3,0.9,0.5
			c0.3,0.2,0.5,0.5,0.6,0.8c0.1,0.3,0.2,0.7,0.2,1.2c0,0.6-0.2,1.2-0.6,1.6c-0.3,0.4-0.8,0.8-1.4,1l1.3,3.7v0.1h-1.9L78.6,16.2z
			 M77.4,14.7l1.4,0c0.2,0,0.4,0,0.6-0.1c0.2-0.1,0.4-0.1,0.5-0.3c0.2-0.1,0.3-0.3,0.4-0.4c0.1-0.2,0.2-0.4,0.2-0.6
			c0.1-0.4,0-0.7-0.2-0.9c-0.2-0.2-0.5-0.4-0.9-0.4l-1.6,0L77.4,14.7z"/>
	</g>
</g>
</svg>
