<?xml version="1.0" encoding="utf-8"?>
<!-- Generator: Adobe Illustrator 22.0.0, SVG Export Plug-In . SVG Version: 6.00 Build 0)  -->
<svg version="1.1" id="Layer_1" xmlns="http://www.w3.org/2000/svg" xmlns:xlink="http://www.w3.org/1999/xlink" x="0px" y="0px"
	 width="25px" height="25px" viewBox="0 0 25 25" style="enable-background:new 0 0 25 25;" xml:space="preserve">
<style type="text/css">
	.st0{fill:#383A3F;}
</style>
<path class="st0" d="M24.3,4.1C24.2,4,24,3.9,23.9,3.9h-4.2L20,1.2c0-0.2,0-0.3-0.1-0.4c-0.1-0.1-0.2-0.2-0.4-0.2H5.6
	c-0.2,0-0.3,0.1-0.4,0.2C5.1,0.9,5,1,5,1.2l0.3,2.7H1.1C1,3.9,0.8,4,0.7,4.1S0.6,4.4,0.6,4.5l0.7,6.2c0.3,3,2.7,5.2,5.7,5.4
	c0.8,2.1,2.7,3.6,5,3.8v3.4H7.7c-0.3,0-0.5,0.2-0.5,0.5c0,0.3,0.2,0.5,0.5,0.5h9.7c0.3,0,0.5-0.2,0.5-0.5c0-0.3-0.2-0.5-0.5-0.5H13
	v-3.4c2.3-0.2,4.2-1.7,5-3.8c2.9-0.2,5.3-2.4,5.7-5.4l0.7-6.2C24.4,4.4,24.4,4.2,24.3,4.1z M2.3,10.6L1.7,5h3.7l1.1,9.6
	c0,0.1,0.1,0.2,0.1,0.3C4.4,14.7,2.6,12.9,2.3,10.6z M12.5,18.9c-2.5,0-4.6-1.9-4.9-4.4L6.2,1.7h12.6l-0.3,2.8c0,0,0,0,0,0
	c0,0,0,0,0,0l-1.1,10C17.1,17,15,18.9,12.5,18.9z M22.7,10.6c-0.2,2.3-2,4.1-4.3,4.4c0-0.1,0.1-0.2,0.1-0.3L19.5,5h3.7L22.7,10.6z"
	/>
</svg>
