<?xml version="1.0" encoding="utf-8"?>
<!-- Generator: Adobe Illustrator 22.0.0, SVG Export Plug-In . SVG Version: 6.00 Build 0)  -->
<svg version="1.1" id="Layer_1" xmlns="http://www.w3.org/2000/svg" xmlns:xlink="http://www.w3.org/1999/xlink" x="0px" y="0px"
	 width="30px" height="30px" viewBox="0 0 30 30" style="enable-background:new 0 0 30 30;" xml:space="preserve">
<style type="text/css">
	.st0{fill:#FFFFFF;}
</style>
<path class="st0" d="M27.6,6c-0.1-0.1-0.3-0.2-0.4-0.2h-4.5L23,2.9c0-0.2,0-0.3-0.1-0.5s-0.3-0.2-0.4-0.2H7.6
	c-0.2,0-0.3,0.1-0.4,0.2C7,2.5,7,2.7,7,2.9l0.3,2.9H2.8C2.6,5.8,2.5,5.9,2.4,6C2.3,6.1,2.2,6.3,2.2,6.4l0.7,6.7
	c0.3,3.2,2.9,5.6,6.1,5.8c0.9,2.3,2.9,3.9,5.4,4.1v3.7H9.9c-0.3,0-0.6,0.3-0.6,0.6s0.3,0.6,0.6,0.6h10.4c0.3,0,0.6-0.3,0.6-0.6
	s-0.3-0.6-0.6-0.6h-4.7V23c2.5-0.2,4.6-1.8,5.4-4.1c3.1-0.2,5.7-2.6,6.1-5.8l0.7-6.7C27.8,6.3,27.7,6.1,27.6,6z M4.1,13L3.5,7h4
	l1.2,10.3c0,0.1,0,0.2,0.1,0.4C6.3,17.3,4.4,15.4,4.1,13z M15,21.8c-2.7,0-4.9-2-5.2-4.7L8.2,3.4h13.6l-0.3,3c0,0,0,0,0,0
	c0,0,0,0,0,0l-1.2,10.8C19.9,19.8,17.7,21.8,15,21.8z M25.9,13c-0.3,2.5-2.2,4.4-4.6,4.7c0-0.1,0-0.2,0.1-0.4L22.5,7h4L25.9,13z"/>
</svg>
