<?xml version="1.0" encoding="utf-8"?>
<!-- Generator: Adobe Illustrator 22.0.0, SVG Export Plug-In . SVG Version: 6.00 Build 0)  -->
<svg version="1.1" id="Layer_1" xmlns="http://www.w3.org/2000/svg" xmlns:xlink="http://www.w3.org/1999/xlink" x="0px" y="0px"
	 width="19px" height="15px" viewBox="0 0 19 15" style="enable-background:new 0 0 19 15;" xml:space="preserve">
<style type="text/css">
	.st0{fill:#383A3F;}
</style>
<path class="st0" d="M17,0.218H2c-0.827,0-1.5,0.673-1.5,1.5v11.564c0,0.827,0.673,1.5,1.5,1.5H17c0.827,0,1.5-0.673,1.5-1.5V1.718
	C18.5,0.891,17.827,0.218,17,0.218z M2,1.036H17c0.376,0,0.682,0.306,0.682,0.682v0.414L9.5,7.86L1.318,2.133V1.718
	C1.318,1.342,1.624,1.036,2,1.036z M17,13.964H2c-0.376,0-0.682-0.306-0.682-0.682V3.131l7.947,5.563
	C9.336,8.744,9.418,8.768,9.5,8.768s0.164-0.025,0.235-0.074l7.947-5.563v10.151C17.682,13.658,17.376,13.964,17,13.964z"/>
</svg>
