<?xml version="1.0" encoding="utf-8"?>
<!-- Generator: Adobe Illustrator 22.0.0, SVG Export Plug-In . SVG Version: 6.00 Build 0)  -->
<svg version="1.1" id="Layer_1" xmlns="http://www.w3.org/2000/svg" xmlns:xlink="http://www.w3.org/1999/xlink" x="0px" y="0px"
	 width="18px" height="18px" viewBox="0 0 18 18" enable-background="new 0 0 18 18" xml:space="preserve">
<g id="mention">
	<path fill="#818181" d="M18,8.999C18,8.999,18,8.999,18,8.999C18,8.999,18,8.998,18,8.999C17.999,4.036,13.962,0,9,0
		C4.037,0,0,4.037,0,9s4.037,9,9,9c1.35,0,2.647-0.291,3.857-0.866c0.165-0.078,0.235-0.275,0.157-0.44
		c-0.078-0.165-0.275-0.235-0.44-0.157C11.453,17.07,10.251,17.34,9,17.34c-4.598,0-8.34-3.741-8.34-8.339
		c0-4.598,3.741-8.34,8.34-8.34c4.598,0,8.339,3.741,8.339,8.339c0,1.722-1.401,3.123-3.123,3.123c-0.509,0-1-0.128-1.445-0.361
		c0.569-0.775,0.909-1.728,0.909-2.761c0-2.581-2.1-4.681-4.681-4.681c-2.581,0-4.681,2.1-4.681,4.681
		c0,2.581,2.1,4.681,4.681,4.681c1.308,0,2.49-0.54,3.341-1.408c0.571,0.328,1.211,0.509,1.876,0.509
		c2.085,0,3.782-1.696,3.783-3.781C18,9.001,18,9,18,8.999C18,9,18,8.999,18,8.999z M9,13.02c-2.217,0-4.02-1.804-4.02-4.02
		c0-2.217,1.804-4.02,4.02-4.02c2.217,0,4.02,1.804,4.02,4.02C13.02,11.217,11.217,13.02,9,13.02z"/>
</g>
</svg>
