<?xml version="1.0" encoding="utf-8"?>
<!-- Generator: Adobe Illustrator 22.0.0, SVG Export Plug-In . SVG Version: 6.00 Build 0)  -->
<svg version="1.1" id="Layer_1" xmlns="http://www.w3.org/2000/svg" xmlns:xlink="http://www.w3.org/1999/xlink" x="0px" y="0px"
	 width="28px" height="56px" viewBox="0 0 28 56" style="enable-background:new 0 0 28 56;" xml:space="preserve">
<style type="text/css">
	.st0{fill:#818181;}
</style>
<path class="st0" d="M14,44.839l12.65-8.855v14.53c0,0.883-0.723,1.606-1.606,1.606H2.956c-0.883,0-1.606-0.723-1.606-1.606v-14.53
	L14,44.839z M25.044,31.88H2.956c-0.883,0-1.606,0.723-1.606,1.606v0.924L14,43.265l12.65-8.855v-0.924
	C26.65,32.603,25.927,31.88,25.044,31.88z"/>
<path class="st0" d="M24.583,3.725H3.417C2.25,3.725,1.3,4.674,1.3,5.841v16.318c0,1.167,0.949,2.116,2.116,2.116h21.167
	c1.167,0,2.116-0.949,2.116-2.116V5.841C26.7,4.674,25.75,3.725,24.583,3.725z M3.417,4.879h21.167c0.53,0,0.962,0.432,0.962,0.962
	v0.585L14,14.508L2.455,6.426V5.841C2.455,5.311,2.886,4.879,3.417,4.879z M24.583,23.121H3.417c-0.53,0-0.962-0.432-0.962-0.962
	V7.835l11.214,7.85c0.1,0.07,0.215,0.104,0.331,0.104s0.231-0.035,0.331-0.104l11.214-7.85v14.324
	C25.545,22.689,25.114,23.121,24.583,23.121z"/>
</svg>
