<?xml version="1.0" encoding="utf-8"?>
<!-- Generator: Adobe Illustrator 22.0.0, SVG Export Plug-In . SVG Version: 6.00 Build 0)  -->
<svg version="1.1" id="Layer_1" xmlns="http://www.w3.org/2000/svg" xmlns:xlink="http://www.w3.org/1999/xlink" x="0px" y="0px"
	 width="28px" height="28px" viewBox="0 0 28 28" style="enable-background:new 0 0 28 28;" xml:space="preserve">
<style type="text/css">
	.st0{fill:#818181;}
</style>
<g>
	<path class="st0" d="M24.35,23H3.65C3.291,23,3,22.709,3,22.35c0-0.359,0.291-0.65,0.65-0.65h20.7c0.359,0,0.65,0.291,0.65,0.65
		C25,22.709,24.709,23,24.35,23z"/>
</g>
<g>
	<path class="st0" d="M24.35,6.3H3.65C3.291,6.3,3,6.009,3,5.65S3.291,5,3.65,5h20.7C24.709,5,25,5.291,25,5.65
		S24.709,6.3,24.35,6.3z"/>
</g>
<g>
	<path class="st0" d="M24.3,14.7H3.7C3.313,14.7,3,14.387,3,14s0.313-0.7,0.7-0.7h20.6c0.387,0,0.7,0.313,0.7,0.7
		S24.687,14.7,24.3,14.7z"/>
</g>
</svg>
