<?xml version="1.0" encoding="utf-8"?>
<!-- Generator: Adobe Illustrator 22.0.0, SVG Export Plug-In . SVG Version: 6.00 Build 0)  -->
<svg version="1.1" id="Layer_1" xmlns="http://www.w3.org/2000/svg" xmlns:xlink="http://www.w3.org/1999/xlink" x="0px" y="0px"
	 width="36px" height="40px" viewBox="0 0 36 40" enable-background="new 0 0 36 40" xml:space="preserve">
<path fill="#FFFFFF" d="M35.488,19.748c-0.005-0.05-0.011-0.099-0.018-0.148c-0.005-0.036-0.011-0.071-0.018-0.106
	c-0.01-0.05-0.021-0.1-0.033-0.149c-0.009-0.037-0.019-0.072-0.029-0.108c-0.014-0.046-0.028-0.092-0.045-0.138
	c-0.014-0.04-0.03-0.08-0.047-0.121c-0.016-0.038-0.032-0.077-0.05-0.115c-0.022-0.047-0.046-0.094-0.071-0.14
	c-0.011-0.02-0.019-0.04-0.03-0.06c-0.007-0.011-0.014-0.022-0.021-0.032c-0.029-0.049-0.059-0.095-0.091-0.142
	c-0.019-0.027-0.037-0.056-0.057-0.083c-0.031-0.042-0.065-0.083-0.099-0.125c-0.024-0.028-0.047-0.057-0.072-0.085
	c-0.031-0.034-0.065-0.067-0.098-0.1c-0.031-0.032-0.061-0.062-0.094-0.091c-0.03-0.027-0.062-0.052-0.093-0.078
	c-0.038-0.032-0.077-0.063-0.117-0.093c-0.029-0.022-0.06-0.041-0.09-0.062c-0.045-0.03-0.089-0.059-0.135-0.086
	c-0.012-0.008-0.023-0.016-0.035-0.023L4.528,0.738C4.521,0.734,4.514,0.732,4.507,0.727C4.454,0.698,4.4,0.672,4.346,0.646
	c-0.027-0.013-0.053-0.026-0.08-0.039c-0.051-0.022-0.103-0.04-0.155-0.06C4.078,0.536,4.046,0.523,4.013,0.512
	C3.97,0.499,3.927,0.488,3.883,0.476C3.839,0.464,3.795,0.452,3.751,0.442c-0.033-0.007-0.066-0.012-0.1-0.017
	C3.596,0.416,3.54,0.406,3.484,0.4C3.456,0.397,3.427,0.396,3.399,0.394c-0.061-0.005-0.123-0.009-0.184-0.01
	c-0.008,0-0.015-0.001-0.023-0.001c-0.025,0-0.049,0.003-0.074,0.004C3.062,0.388,3.007,0.391,2.952,0.396
	C2.91,0.399,2.869,0.405,2.828,0.411c-0.043,0.006-0.087,0.012-0.13,0.02C2.649,0.44,2.601,0.451,2.554,0.463
	C2.518,0.471,2.483,0.48,2.447,0.49C2.397,0.504,2.348,0.521,2.3,0.538C2.266,0.55,2.233,0.562,2.201,0.575
	c-0.047,0.018-0.092,0.038-0.137,0.06c-0.035,0.016-0.07,0.032-0.104,0.05C1.919,0.705,1.88,0.727,1.841,0.749
	C1.803,0.772,1.765,0.794,1.728,0.818C1.695,0.84,1.663,0.862,1.631,0.885c-0.04,0.029-0.08,0.058-0.118,0.089
	c-0.028,0.023-0.055,0.046-0.082,0.07C1.392,1.076,1.354,1.11,1.317,1.146C1.291,1.172,1.265,1.199,1.24,1.226
	C1.206,1.261,1.173,1.296,1.141,1.333C1.113,1.368,1.086,1.402,1.059,1.438C1.034,1.471,1.008,1.503,0.984,1.537
	c-0.031,0.046-0.06,0.093-0.089,0.14c-0.013,0.021-0.028,0.04-0.04,0.063c-0.004,0.007-0.007,0.013-0.01,0.021
	c-0.03,0.053-0.056,0.108-0.082,0.163C0.749,1.95,0.735,1.975,0.724,2.002c-0.022,0.051-0.041,0.104-0.06,0.157
	C0.652,2.191,0.639,2.222,0.628,2.254C0.615,2.298,0.604,2.341,0.592,2.385C0.581,2.43,0.568,2.472,0.559,2.516
	C0.552,2.549,0.548,2.584,0.542,2.618c-0.01,0.055-0.019,0.11-0.025,0.165C0.513,2.812,0.512,2.842,0.51,2.871
	C0.506,2.931,0.502,2.992,0.501,3.052C0.501,3.06,0.5,3.068,0.5,3.075v33.849c0,0.007,0.001,0.015,0.001,0.022
	c0.001,0.062,0.005,0.123,0.009,0.184c0.002,0.028,0.003,0.057,0.006,0.086c0.006,0.056,0.016,0.112,0.025,0.168
	c0.006,0.033,0.01,0.066,0.017,0.1c0.01,0.045,0.023,0.089,0.035,0.134c0.011,0.042,0.021,0.086,0.035,0.127
	c0.011,0.034,0.025,0.067,0.037,0.101c0.019,0.051,0.037,0.102,0.058,0.152c0.012,0.028,0.027,0.056,0.04,0.085
	c0.026,0.053,0.051,0.105,0.08,0.156c0.004,0.008,0.007,0.015,0.011,0.022c0.008,0.013,0.018,0.025,0.026,0.038
	c0.046,0.077,0.095,0.152,0.148,0.223c0.019,0.026,0.037,0.051,0.056,0.075c0.064,0.081,0.132,0.159,0.205,0.233
	c0.017,0.017,0.036,0.031,0.053,0.048c0.059,0.056,0.121,0.11,0.185,0.161c0.029,0.023,0.059,0.045,0.089,0.066
	c0.063,0.045,0.128,0.088,0.194,0.128c0.023,0.013,0.046,0.028,0.069,0.041c0.092,0.051,0.188,0.098,0.286,0.139
	c0.012,0.005,0.024,0.008,0.036,0.013c0.086,0.034,0.175,0.064,0.265,0.089c0.027,0.008,0.054,0.014,0.081,0.021
	c0.078,0.019,0.157,0.035,0.237,0.046c0.029,0.005,0.059,0.01,0.088,0.014c0.096,0.011,0.193,0.018,0.292,0.019
	c0.009,0,0.018,0.001,0.027,0.001c0.017,0,0.033-0.003,0.049-0.003c0.087-0.001,0.172-0.006,0.257-0.016
	c0.036-0.004,0.071-0.011,0.107-0.016c0.071-0.012,0.142-0.025,0.211-0.041c0.033-0.007,0.066-0.015,0.099-0.026
	c0.085-0.023,0.168-0.051,0.25-0.083c0.016-0.007,0.032-0.012,0.048-0.018c0.101-0.041,0.2-0.089,0.294-0.142
	c0.006-0.003,0.012-0.006,0.018-0.009l29.608-16.919c0.005-0.002,0.01-0.006,0.015-0.009c0.089-0.051,0.174-0.108,0.255-0.167
	c0.028-0.021,0.054-0.043,0.081-0.064c0.061-0.049,0.118-0.099,0.174-0.151c0.024-0.022,0.047-0.045,0.07-0.068
	c0.073-0.075,0.143-0.152,0.207-0.234c0.002-0.002,0.004-0.004,0.006-0.007c0.069-0.09,0.13-0.185,0.187-0.281
	c0.005-0.009,0.012-0.016,0.017-0.026c0.011-0.019,0.019-0.039,0.03-0.059c0.025-0.046,0.049-0.092,0.071-0.14
	c0.018-0.038,0.034-0.076,0.049-0.114c0.017-0.04,0.033-0.082,0.048-0.124c0.016-0.045,0.03-0.089,0.044-0.135
	c0.011-0.037,0.021-0.073,0.03-0.109c0.012-0.049,0.023-0.098,0.033-0.148c0.007-0.036,0.013-0.072,0.018-0.108
	c0.007-0.048,0.013-0.097,0.018-0.145c0.004-0.04,0.006-0.08,0.008-0.12C35.498,20.089,35.5,20.044,35.5,20
	c0-0.046-0.002-0.091-0.004-0.136C35.494,19.826,35.492,19.787,35.488,19.748z"/>
</svg>
