<?xml version="1.0" encoding="utf-8"?>
<!-- Generator: Adobe Illustrator 22.0.0, SVG Export Plug-In . SVG Version: 6.00 Build 0)  -->
<svg version="1.1" id="Layer_3" xmlns="http://www.w3.org/2000/svg" xmlns:xlink="http://www.w3.org/1999/xlink" x="0px" y="0px"
	 width="42px" height="42px" viewBox="0 0 42 42" style="enable-background:new 0 0 42 42;" xml:space="preserve">
<style type="text/css">
	.st0{opacity:0.7;fill:#0064DB;}
	.st1{opacity:0.7;fill:#FFFFFF;}
</style>
<circle class="st0" cx="21" cy="21" r="19.091"/>
<path class="st1" d="M21,0C9.421,0,0,9.421,0,21s9.421,21,21,21c11.579,0,21-9.421,21-21S32.579,0,21,0z M21,40.091
	C10.473,40.091,1.909,31.527,1.909,21S10.473,1.909,21,1.909c10.527,0,19.091,8.564,19.091,19.091S31.527,40.091,21,40.091z
	 M28.474,21.535l-10.62,6.827c-0.423,0.272-0.98-0.032-0.98-0.535V14.173c0-0.503,0.557-0.807,0.98-0.535l10.62,6.827
	C28.864,20.715,28.864,21.285,28.474,21.535z"/>
</svg>
