<?xml version="1.0" encoding="utf-8"?>
<!-- Generator: Adobe Illustrator 22.0.0, SVG Export Plug-In . SVG Version: 6.00 Build 0)  -->
<svg version="1.1" id="Layer_1" xmlns="http://www.w3.org/2000/svg" xmlns:xlink="http://www.w3.org/1999/xlink" x="0px" y="0px"
	 width="28px" height="22px" viewBox="0 0 28 22" style="enable-background:new 0 0 28 22;" xml:space="preserve">
<style type="text/css">
	.st0{fill:#373B3F;}
</style>
<path class="st0" d="M27.933,20.634l-0.741-1.671c-0.595-1.342-1.928-2.208-3.395-2.208h-0.312c-0.235,0-0.478,0-0.573-0.065
	c-0.091-0.063-0.145-0.307-0.145-0.653V15.17c0.223-0.153,0.431-0.325,0.623-0.515l1.83-0.328c0.67-0.12,1.156-0.702,1.156-1.382
	V6.893c0-3.41-2.774-6.185-6.185-6.185s-6.185,2.774-6.185,6.185v6.047c0,0.686,0.49,1.268,1.166,1.384l1.868,0.321
	c0.2,0.198,0.417,0.379,0.651,0.537v0.855c0,0.346-0.054,0.59-0.145,0.653c-0.095,0.065-0.338,0.065-0.573,0.065h-0.419
	c-1.446,0-2.771,0.849-3.375,2.164l-0.785,1.71c-0.067,0.145-0.055,0.314,0.031,0.448c0.086,0.134,0.235,0.216,0.394,0.216h14.684
	c0.158,0,0.306-0.08,0.392-0.213S27.997,20.779,27.933,20.634z M16.639,11.439V8.653c0.74,0.227,1.507,0.344,2.292,0.344
	c1.801,0,3.496-0.607,4.876-1.714v4.155c0,1.976-1.608,3.584-3.584,3.584S16.639,13.415,16.639,11.439z M14.943,12.939V6.893
	c0-2.894,2.354-5.248,5.248-5.248s5.248,2.354,5.248,5.248v6.052c0,0.227-0.162,0.421-0.385,0.461l-0.866,0.155
	c0.342-0.636,0.554-1.351,0.554-2.122V6.872c0-0.203-0.018-0.406-0.044-0.606c0-0.002,0-0.003,0-0.005
	c-0.003-0.019-0.001-0.038-0.004-0.056c-0.003-0.02-0.014-0.035-0.02-0.054c-0.008-0.031-0.017-0.06-0.032-0.089
	c-0.015-0.029-0.034-0.053-0.054-0.078c-0.012-0.015-0.018-0.033-0.033-0.047c-0.007-0.007-0.017-0.009-0.025-0.016
	c-0.025-0.021-0.052-0.036-0.08-0.051c-0.026-0.014-0.051-0.029-0.078-0.037c-0.027-0.009-0.055-0.011-0.084-0.015
	c-0.033-0.004-0.064-0.008-0.096-0.005c-0.01,0.001-0.019-0.003-0.029-0.002c-0.019,0.003-0.035,0.014-0.053,0.019
	c-0.031,0.009-0.061,0.017-0.09,0.033c-0.029,0.015-0.053,0.034-0.078,0.054c-0.015,0.012-0.033,0.018-0.047,0.033
	c-1.31,1.362-3.073,2.112-4.962,2.112c-0.894,0-1.763-0.169-2.584-0.501c-0.03-0.012-0.06-0.011-0.091-0.017
	c-0.029-0.005-0.055-0.017-0.085-0.017c-0.001,0-0.002,0.001-0.003,0.001c-0.052,0-0.102,0.013-0.15,0.03
	C15.95,7.58,15.889,7.614,15.84,7.663c0,0-0.001,0.001-0.001,0.001c-0.043,0.043-0.077,0.094-0.1,0.151
	c0,0.001-0.001,0.001-0.002,0.002c-0.01,0.025-0.009,0.052-0.015,0.078c-0.007,0.033-0.02,0.063-0.02,0.098v3.445
	c0,0.77,0.212,1.485,0.553,2.121l-0.924-0.159C15.107,13.362,14.943,13.168,14.943,12.939z M13.551,20.356l0.481-1.047
	c0.452-0.983,1.442-1.618,2.524-1.618h0.419c0.619,0,1.654,0,1.654-1.654v-0.383c0.497,0.189,1.031,0.305,1.594,0.305
	c0.568,0,1.107-0.117,1.608-0.309v0.387c0,1.599,0.964,1.651,1.587,1.653c0.002,0,0.003,0.001,0.004,0.001h0.375
	c1.098,0,2.094,0.648,2.539,1.652l0.449,1.013H13.551z M11.578,16.755h-0.481c-0.235,0-0.478,0-0.573-0.065
	c-0.091-0.063-0.145-0.307-0.145-0.653V15.21c1.226-0.809,2.038-2.195,2.038-3.771V6.872c0-0.273-0.033-0.543-0.082-0.809
	c-0.013-0.07-0.027-0.138-0.043-0.207c-0.054-0.233-0.122-0.46-0.212-0.682c-0.01-0.025-0.016-0.051-0.027-0.076
	c-0.086-0.201-0.184-0.398-0.3-0.586c-0.012-0.02-0.031-0.032-0.045-0.049c-0.802-1.265-2.206-2.113-3.811-2.113
	c-2.492,0-4.52,2.028-4.52,4.52v0.444v4.122c0,1.556,0.79,2.93,1.99,3.743v0.855c0,0.346-0.054,0.59-0.145,0.653
	c-0.095,0.065-0.338,0.065-0.573,0.065H4.226c-1.45,0-2.775,0.852-3.378,2.17l-0.779,1.705c-0.066,0.145-0.054,0.314,0.032,0.448
	c0.086,0.134,0.234,0.215,0.394,0.215h9.771c0.259,0,0.468-0.21,0.468-0.468s-0.21-0.468-0.468-0.468H1.224L1.7,19.314
	c0.451-0.986,1.442-1.623,2.526-1.623h0.423c0.619,0,1.654,0,1.654-1.654v-0.383c0.497,0.189,1.031,0.305,1.594,0.305
	c0.545,0,1.061-0.112,1.545-0.29v0.368c0,1.654,1.035,1.654,1.654,1.654h0.481c0.259,0,0.468-0.21,0.468-0.468
	S11.836,16.755,11.578,16.755z M4.313,11.439V7.316V6.872c0-1.976,1.608-3.584,3.584-3.584c1.478,0,2.748,0.9,3.296,2.179
	c0.008,0.018,0.012,0.037,0.02,0.055c0.072,0.175,0.126,0.358,0.17,0.545c0.012,0.054,0.024,0.108,0.034,0.162
	c0.038,0.209,0.065,0.422,0.065,0.642v4.567c0,1.297-0.699,2.424-1.733,3.053c-0.025,0.01-0.047,0.024-0.07,0.038
	c-0.527,0.305-1.13,0.492-1.781,0.492C5.921,15.022,4.313,13.415,4.313,11.439z"/>
</svg>
