<?xml version="1.0" encoding="utf-8"?>
<!-- Generator: Adobe Illustrator 22.0.0, SVG Export Plug-In . SVG Version: 6.00 Build 0)  -->
<svg version="1.1" id="Layer_1" xmlns="http://www.w3.org/2000/svg" xmlns:xlink="http://www.w3.org/1999/xlink" x="0px" y="0px"
	 width="20px" height="20px" viewBox="0 0 20 20" style="enable-background:new 0 0 20 20;" xml:space="preserve">
<style type="text/css">
	.st0{fill:#818181;}
</style>
<path class="st0" d="M16.482,5.096c-1.119,0-2.106,0.535-2.751,1.352L9.838,4.257c0.194-0.393,0.312-0.829,0.312-1.296
	c0-1.63-1.326-2.956-2.956-2.956c-1.63,0-2.956,1.326-2.956,2.956s1.326,2.956,2.956,2.956c0.835,0,1.586-0.351,2.124-0.909
	l3.935,2.216c-0.185,0.427-0.289,0.897-0.289,1.391c0,0.558,0.143,1.079,0.375,1.548L8.63,12.769
	c-0.836-1.295-2.285-2.159-3.938-2.159C2.105,10.611,0,12.716,0,15.303s2.105,4.692,4.692,4.692c2.587,0,4.692-2.105,4.692-4.692
	c0-0.61-0.125-1.19-0.338-1.725l4.801-2.658c0.645,0.736,1.581,1.212,2.635,1.212c1.94,0,3.518-1.578,3.518-3.518
	S18.422,5.096,16.482,5.096z M7.194,5.008c-1.129,0-2.047-0.918-2.047-2.047c0-1.129,0.918-2.047,2.047-2.047
	c1.129,0,2.047,0.918,2.047,2.047C9.241,4.089,8.323,5.008,7.194,5.008z M4.692,19.086c-2.086,0-3.783-1.697-3.783-3.783
	c0-2.086,1.697-3.783,3.783-3.783c2.086,0,3.783,1.697,3.783,3.783C8.476,17.389,6.779,19.086,4.692,19.086z M16.482,11.223
	c-1.438,0-2.609-1.17-2.609-2.609s1.17-2.609,2.609-2.609c1.439,0,2.609,1.17,2.609,2.609S17.921,11.223,16.482,11.223z"/>
</svg>
