<?xml version="1.0" encoding="utf-8"?>
<!-- Generator: Adobe Illustrator 22.0.0, SVG Export Plug-In . SVG Version: 6.00 Build 0)  -->
<svg version="1.1" id="Layer_1" xmlns="http://www.w3.org/2000/svg" xmlns:xlink="http://www.w3.org/1999/xlink" x="0px" y="0px"
	 width="25px" height="25px" viewBox="0 0 25 25" style="enable-background:new 0 0 25 25;" xml:space="preserve">
<style type="text/css">
	.st0{fill:#FFFFFF;}
</style>
<path class="st0" d="M18.258,23.589h3.16c0.314,0,0.568,0.254,0.568,0.568s-0.254,0.568-0.568,0.568h-6.36c0,0-0.001,0-0.001,0
	c-0.072,0-0.14-0.016-0.205-0.042c-0.022-0.009-0.04-0.022-0.061-0.034c-0.04-0.022-0.078-0.045-0.111-0.075
	c-0.02-0.018-0.036-0.038-0.053-0.059c-0.027-0.032-0.05-0.065-0.069-0.103c-0.013-0.026-0.023-0.052-0.033-0.08
	c-0.006-0.019-0.018-0.035-0.022-0.055c-0.005-0.021,0.001-0.041-0.001-0.061c-0.002-0.021-0.012-0.039-0.012-0.06
	c0-0.018,0.009-0.034,0.01-0.051c0.004-0.039,0.011-0.075,0.023-0.112c0.011-0.035,0.022-0.067,0.039-0.099
	c0.017-0.032,0.037-0.06,0.06-0.089c0.023-0.029,0.047-0.055,0.075-0.078c0.027-0.023,0.056-0.041,0.087-0.059
	c0.034-0.019,0.068-0.034,0.105-0.046c0.017-0.005,0.03-0.017,0.048-0.021c5.173-1.13,8.928-5.799,8.928-11.102
	s-3.755-9.973-8.928-11.102c-0.307-0.067-0.501-0.37-0.434-0.676s0.369-0.501,0.676-0.434c2.742,0.599,5.234,2.134,7.017,4.322
	C24.004,6.829,25,9.631,25,12.5s-0.996,5.671-2.805,7.891C21.111,21.721,19.763,22.805,18.258,23.589z M10.065,23.602
	C4.891,22.473,1.136,17.804,1.136,12.5s3.755-9.973,8.929-11.102c0.018-0.004,0.031-0.016,0.048-0.021
	c0.037-0.012,0.071-0.027,0.105-0.046c0.032-0.018,0.06-0.036,0.088-0.059c0.028-0.024,0.051-0.049,0.074-0.078
	c0.023-0.028,0.043-0.057,0.06-0.089c0.017-0.032,0.029-0.064,0.039-0.099c0.011-0.037,0.019-0.073,0.023-0.112
	c0.002-0.018,0.01-0.033,0.01-0.052c0-0.021-0.01-0.039-0.012-0.06c-0.002-0.021,0.004-0.04-0.001-0.061
	c-0.004-0.018-0.016-0.031-0.021-0.048c-0.012-0.037-0.027-0.071-0.046-0.105c-0.018-0.032-0.036-0.061-0.059-0.088
	c-0.023-0.028-0.049-0.051-0.077-0.074c-0.029-0.023-0.057-0.043-0.09-0.061c-0.031-0.016-0.063-0.028-0.097-0.039
	c-0.037-0.012-0.074-0.019-0.113-0.023c-0.018-0.002-0.033-0.01-0.051-0.01H3.583c-0.314,0-0.568,0.254-0.568,0.568
	s0.254,0.568,0.568,0.568h3.16C5.238,2.194,3.889,3.279,2.805,4.609C0.996,6.829,0,9.631,0,12.5c0,2.869,0.996,5.671,2.805,7.891
	c1.783,2.188,4.275,3.723,7.018,4.322c0.041,0.009,0.082,0.013,0.122,0.013c0.261,0,0.497-0.181,0.555-0.447
	C10.566,23.972,10.371,23.669,10.065,23.602z M20.175,11.163l-9.031,9.031c-0.111,0.111-0.256,0.166-0.402,0.166
	c-0.145,0-0.291-0.055-0.402-0.166l-5.518-5.518c-0.107-0.107-0.166-0.251-0.166-0.402s0.06-0.295,0.166-0.402l9.031-9.031
	c0.222-0.222,0.582-0.222,0.804,0l5.518,5.518c0.107,0.107,0.166,0.251,0.166,0.402S20.282,11.056,20.175,11.163z M18.97,10.761
	l-4.715-4.714l-8.227,8.227l4.715,4.715L18.97,10.761z"/>
</svg>
