<?xml version="1.0" encoding="utf-8"?>
<!-- Generator: Adobe Illustrator 22.0.0, SVG Export Plug-In . SVG Version: 6.00 Build 0)  -->
<svg version="1.1" id="Layer_1" xmlns="http://www.w3.org/2000/svg" xmlns:xlink="http://www.w3.org/1999/xlink" x="0px" y="0px"
	 width="25px" height="25px" viewBox="0 0 25 25" style="enable-background:new 0 0 25 25;" xml:space="preserve">
<style type="text/css">
	.st0{fill:#808080;}
</style>
<g>
	<path class="st0" d="M22.3,20.5c1.8-2.2,2.8-5.1,2.8-8c0-2.9-1-5.7-2.8-8c-1.8-2.2-4.3-3.8-7.1-4.4c-0.3-0.1-0.6,0.1-0.7,0.4
		c-0.1,0.3,0.1,0.6,0.4,0.7c5.2,1.1,9,5.8,9,11.2c0,5.3-3.8,10.1-9,11.2c0,0,0,0,0,0c0,0-0.1,0-0.1,0c0,0-0.1,0-0.1,0.1
		c0,0-0.1,0-0.1,0.1c0,0,0,0.1-0.1,0.1c0,0,0,0.1,0,0.1c0,0,0,0.1,0,0.1c0,0,0,0,0,0.1c0,0,0,0,0,0.1c0,0,0,0,0,0.1c0,0,0,0,0,0.1
		c0,0,0,0.1,0,0.1c0,0,0,0.1,0.1,0.1c0,0,0,0,0.1,0.1c0,0,0.1,0.1,0.1,0.1c0,0,0,0,0.1,0c0.1,0,0.1,0,0.2,0c0,0,0,0,0,0h6.4
		c0.3,0,0.6-0.3,0.6-0.6c0-0.3-0.3-0.6-0.6-0.6h-3.2C19.8,22.9,21.2,21.8,22.3,20.5z"/>
	<path class="st0" d="M10,23.7c-5.2-1.1-9-5.8-9-11.2C1,7.2,4.8,2.4,10,1.3c0,0,0,0,0,0c0,0,0.1,0,0.1,0c0,0,0.1,0,0.1-0.1
		c0,0,0.1,0,0.1-0.1c0,0,0-0.1,0.1-0.1c0,0,0-0.1,0-0.1c0,0,0-0.1,0-0.1c0,0,0,0,0-0.1c0,0,0,0,0-0.1c0,0,0,0,0-0.1c0,0,0,0,0,0
		c0,0,0-0.1,0-0.1c0,0,0-0.1-0.1-0.1c0,0,0-0.1-0.1-0.1c0,0-0.1,0-0.1-0.1c0,0-0.1,0-0.1,0c0,0-0.1,0-0.1,0c0,0,0,0-0.1,0H3.5
		c-0.3,0-0.6,0.3-0.6,0.6s0.3,0.6,0.6,0.6h3.2c-1.5,0.8-2.9,1.9-4,3.2c-1.8,2.2-2.8,5.1-2.8,8c0,2.9,1,5.7,2.8,8
		c1.8,2.2,4.3,3.8,7.1,4.4c0,0,0.1,0,0.1,0c0.3,0,0.5-0.2,0.6-0.5C10.5,24.1,10.4,23.8,10,23.7z"/>
	<path class="st0" d="M20.4,10.7c0-0.2-0.1-0.3-0.2-0.4l-5.6-5.6c-0.2-0.2-0.6-0.2-0.8,0l-9.1,9.1c-0.1,0.1-0.2,0.3-0.2,0.4
		c0,0.2,0.1,0.3,0.2,0.4l5.6,5.6c0.1,0.1,0.3,0.2,0.4,0.2s0.3-0.1,0.4-0.2l9.1-9.1C20.3,11,20.4,10.9,20.4,10.7z M10.7,19L6,14.3
		L14.3,6l4.8,4.8L10.7,19z"/>
</g>
</svg>
