<?xml version="1.0" encoding="utf-8"?>
<!-- Generator: Adobe Illustrator 22.0.0, SVG Export Plug-In . SVG Version: 6.00 Build 0)  -->
<svg version="1.1" id="Layer_1" xmlns="http://www.w3.org/2000/svg" xmlns:xlink="http://www.w3.org/1999/xlink" x="0px" y="0px"
	 width="75px" height="75px" viewBox="0 0 75 75" enable-background="new 0 0 75 75" xml:space="preserve">
<path fill="#FFFFFF" d="M37.5,0C16.822,0,0,16.822,0,37.5C0,58.178,16.822,75,37.5,75S75,58.178,75,37.5C75,16.822,58.178,0,37.5,0z
	 M37.5,72.247C18.34,72.247,2.752,56.66,2.752,37.5C2.752,18.34,18.34,2.753,37.5,2.753S72.248,18.34,72.248,37.5
	C72.248,56.66,56.66,72.247,37.5,72.247z M50.141,32.7c0.269,0.269,0.403,0.621,0.403,0.973c0,0.352-0.134,0.704-0.403,0.973
	L38.424,46.363c-0.537,0.537-1.409,0.537-1.946,0L24.762,34.646c-0.537-0.537-0.537-1.409,0-1.946c0.537-0.537,1.409-0.537,1.946,0
	l10.743,10.744L48.195,32.7C48.732,32.163,49.603,32.163,50.141,32.7z"/>
</svg>
