<?xml version="1.0" encoding="utf-8"?>
<!-- Generator: Adobe Illustrator 22.0.0, SVG Export Plug-In . SVG Version: 6.00 Build 0)  -->
<svg version="1.1" id="Layer_1" xmlns="http://www.w3.org/2000/svg" xmlns:xlink="http://www.w3.org/1999/xlink" x="0px" y="0px"
	 width="30px" height="30px" viewBox="0 0 30 30" style="enable-background:new 0 0 30 30;" xml:space="preserve">
<style type="text/css">
	.st0{fill:#818181;}
</style>
<path class="st0" d="M25.531,23.108l-4.363-4.363c-0.094-0.094-0.221-0.147-0.354-0.147s-0.26,0.053-0.354,0.147l-0.489,0.489
	l-1.179-1.179c1.315-1.493,2.12-3.445,2.12-5.585C20.91,7.799,17.111,4,12.441,4c-4.67,0-8.469,3.799-8.469,8.469
	c0,4.67,3.799,8.469,8.469,8.469c2.169,0,4.143-0.826,5.643-2.172l1.177,1.177l-0.489,0.489c-0.196,0.196-0.196,0.513,0,0.709
	l4.363,4.363c0.32,0.32,0.746,0.496,1.198,0.496s0.878-0.176,1.198-0.496C26.192,24.843,26.192,23.768,25.531,23.108z M4.975,12.469
	c0-4.117,3.349-7.466,7.466-7.466c4.117,0,7.466,3.349,7.466,7.466c0,4.117-3.349,7.466-7.466,7.466
	C8.324,19.935,4.975,16.586,4.975,12.469z M24.333,24.998c-0.185,0-0.359-0.072-0.489-0.203l-4.009-4.009l0.978-0.978l4.009,4.009
	c0.27,0.27,0.27,0.709,0,0.978C24.692,24.926,24.518,24.998,24.333,24.998z"/>
</svg>
