<?xml version="1.0" encoding="utf-8"?>
<!-- Generator: Adobe Illustrator 22.0.0, SVG Export Plug-In . SVG Version: 6.00 Build 0)  -->
<svg version="1.1" id="Layer_1" xmlns="http://www.w3.org/2000/svg" xmlns:xlink="http://www.w3.org/1999/xlink" x="0px" y="0px"
	 width="22px" height="24px" viewBox="0 0 22 24" style="enable-background:new 0 0 22 24;" xml:space="preserve">
<style type="text/css">
	.st0{fill:#383A3F;}
</style>
<path class="st0" d="M20.1,9.5c0-5-4.1-9.1-9.1-9.1S1.9,4.5,1.9,9.5c0,4.9,3.8,8.8,8.6,9.1l0,1.8l-1.9,0c-0.3,0-0.5,0.2-0.5,0.5
	s0.2,0.5,0.5,0.5l1.9,0l0,1.9c0,0.3,0.2,0.5,0.5,0.5c0.3,0,0.5-0.2,0.5-0.5l0-1.9l1.9,0c0.3,0,0.5-0.2,0.5-0.5s-0.2-0.5-0.5-0.5
	l-1.9,0l0-1.8C16.3,18.3,20.1,14.4,20.1,9.5z M11,1.4c4.5,0,8.1,3.6,8.1,8.1c0,4.5-3.6,8.1-8.1,8.1c-4.5,0-8.1-3.6-8.1-8.1
	C2.9,5,6.5,1.4,11,1.4z"/>
</svg>
