<?xml version="1.0" encoding="utf-8"?>
<!-- Generator: Adobe Illustrator 22.0.0, SVG Export Plug-In . SVG Version: 6.00 Build 0)  -->
<svg version="1.1" id="Layer_1" xmlns="http://www.w3.org/2000/svg" xmlns:xlink="http://www.w3.org/1999/xlink" x="0px" y="0px"
	 width="21px" height="25px" viewBox="0 0 21 25" style="enable-background:new 0 0 21 25;" xml:space="preserve">
<style type="text/css">
	.st0{fill:#FFFFFF;}
</style>
<path class="st0" d="M20.9,8.931v13.862c0,1.135-0.924,2.059-2.059,2.059H2.158c-1.135,0-2.059-0.924-2.059-2.059V8.931
	c0-1.135,0.923-2.059,2.059-2.059h3.287c0.31,0,0.562,0.251,0.562,0.562S5.755,7.996,5.445,7.996H2.158
	c-0.516,0-0.936,0.419-0.936,0.936v13.862c0,0.516,0.419,0.936,0.936,0.936h16.684c0.516,0,0.936-0.42,0.936-0.936V8.931
	c0-0.516-0.42-0.936-0.936-0.936h-3.293c-0.31,0-0.562-0.251-0.562-0.562s0.252-0.562,0.562-0.562h3.293
	C19.977,6.873,20.9,7.796,20.9,8.931z M6.794,4.977c0.144,0,0.287-0.055,0.397-0.165l2.747-2.747v15.486
	c0,0.31,0.251,0.562,0.562,0.562s0.562-0.252,0.562-0.562V2.065l2.747,2.747c0.109,0.109,0.253,0.165,0.396,0.165
	s0.287-0.055,0.396-0.165c0.22-0.219,0.22-0.575,0-0.794l-3.704-3.705c-0.052-0.052-0.115-0.093-0.184-0.122
	c-0.048-0.02-0.099-0.024-0.15-0.03c-0.022-0.003-0.041-0.013-0.064-0.013c-0.018,0-0.034,0.009-0.052,0.01
	c-0.055,0.005-0.111,0.011-0.163,0.033c-0.062,0.026-0.116,0.064-0.165,0.109c-0.006,0.005-0.013,0.007-0.018,0.012L6.397,4.018
	c-0.219,0.219-0.219,0.575,0,0.794C6.507,4.921,6.651,4.977,6.794,4.977z"/>
</svg>
