<?xml version="1.0" encoding="utf-8"?>
<!-- Generator: Adobe Illustrator 22.0.0, SVG Export Plug-In . SVG Version: 6.00 Build 0)  -->
<svg version="1.1" id="Layer_1" xmlns="http://www.w3.org/2000/svg" xmlns:xlink="http://www.w3.org/1999/xlink" x="0px" y="0px"
	 width="21px" height="42px" viewBox="0 0 21 42" style="enable-background:new 0 0 21 42;" xml:space="preserve">
<style type="text/css">
	.st0{fill:#818181;}
	.st1{fill:#0064DC;}
</style>
<path class="st0" d="M19.257,7.494v11.672c0,0.956-0.777,1.733-1.733,1.733H3.476c-0.955,0-1.732-0.777-1.732-1.733V7.494
	c0-0.956,0.777-1.733,1.732-1.733h2.768c0.261,0,0.473,0.211,0.473,0.473S6.504,6.707,6.243,6.707H3.476
	c-0.434,0-0.787,0.354-0.787,0.788v11.672c0,0.435,0.354,0.788,0.787,0.788h14.048c0.435,0,0.788-0.354,0.788-0.788V7.494
	c0-0.434-0.354-0.788-0.788-0.788h-2.772c-0.261,0-0.473-0.211-0.473-0.473s0.212-0.473,0.473-0.473h2.772
	C18.479,5.762,19.257,6.539,19.257,7.494z M7.38,4.164c0.121,0,0.242-0.046,0.334-0.138l2.313-2.313v13.041
	c0,0.261,0.212,0.473,0.473,0.473s0.473-0.211,0.473-0.473V1.714l2.313,2.313c0.092,0.092,0.213,0.138,0.334,0.138
	s0.242-0.046,0.334-0.138c0.185-0.185,0.185-0.484,0-0.669l-3.119-3.119c-0.004-0.004-0.008-0.005-0.012-0.008
	c-0.041-0.039-0.088-0.072-0.141-0.094C10.623,0.112,10.562,0.1,10.5,0.1c-0.062,0-0.124,0.013-0.182,0.037
	c-0.023,0.01-0.04,0.028-0.061,0.041c-0.031,0.019-0.064,0.034-0.091,0.06L7.046,3.357c-0.185,0.185-0.185,0.484,0,0.669
	C7.138,4.118,7.259,4.164,7.38,4.164z"/>
<path class="st1" d="M19.257,28.494v11.672c0,0.956-0.777,1.733-1.733,1.733H3.476c-0.955,0-1.732-0.777-1.732-1.733V28.494
	c0-0.956,0.777-1.733,1.732-1.733h2.768c0.261,0,0.473,0.211,0.473,0.473s-0.212,0.473-0.473,0.473H3.476
	c-0.434,0-0.787,0.354-0.787,0.788v11.672c0,0.435,0.354,0.788,0.787,0.788h14.048c0.435,0,0.788-0.354,0.788-0.788V28.494
	c0-0.434-0.354-0.788-0.788-0.788h-2.772c-0.261,0-0.473-0.211-0.473-0.473s0.212-0.473,0.473-0.473h2.772
	C18.479,26.762,19.257,27.539,19.257,28.494z M7.38,25.164c0.121,0,0.242-0.046,0.334-0.138l2.313-2.313v13.041
	c0,0.261,0.212,0.473,0.473,0.473s0.473-0.211,0.473-0.473v-13.04l2.313,2.313c0.092,0.092,0.213,0.138,0.334,0.138
	s0.242-0.046,0.334-0.138c0.185-0.185,0.185-0.484,0-0.669l-3.119-3.119c-0.004-0.004-0.008-0.005-0.012-0.008
	c-0.041-0.039-0.088-0.072-0.141-0.094c-0.058-0.024-0.12-0.037-0.182-0.037c-0.062,0-0.124,0.013-0.182,0.037
	c-0.023,0.01-0.04,0.028-0.061,0.041c-0.031,0.019-0.064,0.034-0.091,0.06l-3.119,3.119c-0.185,0.185-0.185,0.484,0,0.669
	C7.138,25.118,7.259,25.164,7.38,25.164z"/>
</svg>
