<?xml version="1.0" encoding="utf-8"?>
<!-- Generator: Adobe Illustrator 22.0.0, SVG Export Plug-In . SVG Version: 6.00 Build 0)  -->
<svg version="1.1" id="Layer_1" xmlns="http://www.w3.org/2000/svg" xmlns:xlink="http://www.w3.org/1999/xlink" x="0px" y="0px"
	 width="21px" height="22px" viewBox="0 0 21 22" style="enable-background:new 0 0 21 22;" xml:space="preserve">
<style type="text/css">
	.st0{fill:#383A3F;}
</style>
<path class="st0" d="M17.2,5.9c-1.2,0-2.2,0.6-2.8,1.4l-4-2.3c0.2-0.4,0.3-0.9,0.3-1.3c0-1.7-1.4-3.1-3.1-3.1C5.9,0.7,4.5,2,4.5,3.7
	c0,1.7,1.4,3.1,3.1,3.1c0.9,0,1.6-0.4,2.2-0.9l4.1,2.3c-0.2,0.4-0.3,0.9-0.3,1.4c0,0.6,0.1,1.1,0.4,1.6l-4.9,2.7
	c-0.9-1.3-2.4-2.2-4.1-2.2c-2.7,0-4.9,2.2-4.9,4.9c0,2.7,2.2,4.9,4.9,4.9c2.7,0,4.9-2.2,4.9-4.9c0-0.6-0.1-1.2-0.3-1.8l5-2.7
	c0.7,0.8,1.6,1.3,2.7,1.3c2,0,3.6-1.6,3.6-3.6S19.2,5.9,17.2,5.9z M7.6,5.8c-1.2,0-2.1-0.9-2.1-2.1s0.9-2.1,2.1-2.1
	c1.2,0,2.1,0.9,2.1,2.1S8.8,5.8,7.6,5.8z M5,20.4c-2.2,0-3.9-1.8-3.9-3.9c0-2.2,1.8-3.9,3.9-3.9s3.9,1.8,3.9,3.9
	C8.9,18.6,7.2,20.4,5,20.4z M17.2,12.3c-1.5,0-2.7-1.2-2.7-2.7s1.2-2.7,2.7-2.7c1.5,0,2.7,1.2,2.7,2.7S18.7,12.3,17.2,12.3z"/>
</svg>
