<?xml version="1.0" encoding="utf-8"?>
<!-- Generator: Adobe Illustrator 22.0.0, SVG Export Plug-In . SVG Version: 6.00 Build 0)  -->
<svg version="1.1" id="Layer_1" xmlns="http://www.w3.org/2000/svg" xmlns:xlink="http://www.w3.org/1999/xlink" x="0px" y="0px"
	 width="21px" height="22px" viewBox="0 0 21 22" style="enable-background:new 0 0 21 22;" xml:space="preserve">
<style type="text/css">
	.st0{fill:#383A3F;}
</style>
<path class="st0" d="M19.167,0.6H1.833C0.877,0.6,0.1,1.377,0.1,2.333v17.333c0,0.956,0.777,1.733,1.733,1.733h17.333
	c0.956,0,1.733-0.777,1.733-1.733V2.333C20.9,1.377,20.123,0.6,19.167,0.6z M19.955,19.667c0,0.435-0.354,0.788-0.788,0.788H1.833
	c-0.434,0-0.788-0.354-0.788-0.788V2.333c0-0.435,0.354-0.788,0.788-0.788h17.333c0.435,0,0.788,0.354,0.788,0.788V19.667z
	 M15.9,8.728h-3.127V5.6c0-0.261-0.211-0.473-0.473-0.473H8.7c-0.261,0-0.473,0.211-0.473,0.473v3.127H5.1
	c-0.261,0-0.473,0.211-0.473,0.473v3.6c0,0.261,0.211,0.473,0.473,0.473h3.127V16.4c0,0.261,0.211,0.473,0.473,0.473h3.6
	c0.261,0,0.473-0.212,0.473-0.473v-3.127H15.9c0.261,0,0.473-0.212,0.473-0.473V9.2C16.372,8.939,16.161,8.728,15.9,8.728z
	 M15.427,12.328H12.3c-0.261,0-0.473,0.211-0.473,0.473v3.127H9.173V12.8c0-0.261-0.211-0.473-0.473-0.473H5.573V9.673H8.7
	c0.261,0,0.473-0.211,0.473-0.473V6.073h2.655V9.2c0,0.261,0.211,0.473,0.473,0.473h3.127V12.328z"/>
</svg>
