<?xml version="1.0" encoding="utf-8"?>
<!-- Generator: Adobe Illustrator 22.0.0, SVG Export Plug-In . SVG Version: 6.00 Build 0)  -->
<svg version="1.1" id="Layer_1" xmlns="http://www.w3.org/2000/svg" xmlns:xlink="http://www.w3.org/1999/xlink" x="0px" y="0px"
	 width="21px" height="22px" viewBox="0 0 21 22" style="enable-background:new 0 0 21 22;" xml:space="preserve">
<style type="text/css">
	.st0{fill:#383A3F;}
</style>
<path class="st0" d="M20.5,3.2l-9.9-2.5c-0.1,0-0.2,0-0.2,0L0.5,3.2C0.3,3.2,0.2,3.4,0.2,3.6v2.8c0,3.2,1,6.4,2.8,9
	c1.8,2.7,4.4,4.7,7.4,5.9c0.1,0,0.1,0,0.2,0c0.1,0,0.1,0,0.2,0c3-1.2,5.6-3.2,7.4-5.9s2.8-5.8,2.8-9V3.6C20.8,3.4,20.7,3.2,20.5,3.2
	z M1.1,6.4V4l5-1.3v14.9C3,14.8,1.1,10.8,1.1,6.4z M10.5,20.4c-1.3-0.5-2.4-1.2-3.5-2V2.5l3.5-0.9l3.4,0.9v15.9
	C12.9,19.2,11.8,19.9,10.5,20.4z M19.9,6.4c0,4.4-1.9,8.4-5,11.2V2.7l5,1.3V6.4z"/>
</svg>
