<?xml version="1.0" encoding="utf-8"?>
<!-- Generator: Adobe Illustrator 22.0.0, SVG Export Plug-In . SVG Version: 6.00 Build 0)  -->
<svg version="1.1" id="Layer_1" xmlns="http://www.w3.org/2000/svg" xmlns:xlink="http://www.w3.org/1999/xlink" x="0px" y="0px"
	 width="21px" height="22px" viewBox="0 0 21 22" style="enable-background:new 0 0 21 22;" xml:space="preserve">
<style type="text/css">
	.st0{fill:#373B3F;}
</style>
<path class="st0" d="M0.264,6.415l10.023,5.011c0.067,0.034,0.14,0.05,0.213,0.05s0.146-0.017,0.213-0.05l10.023-5.011
	C20.898,6.335,21,6.169,21,5.989c0-0.181-0.102-0.346-0.264-0.427L10.713,0.55c-0.134-0.067-0.292-0.067-0.427,0L0.264,5.562
	C0.102,5.643,0,5.808,0,5.989C0,6.169,0.102,6.335,0.264,6.415z M10.5,1.511l8.956,4.478L10.5,10.467L1.544,5.989L10.5,1.511z
	 M20.95,15.798c0.118,0.236,0.022,0.522-0.213,0.64l-10.023,5.011c-0.067,0.034-0.14,0.05-0.213,0.05
	c-0.073,0-0.146-0.017-0.213-0.05L0.264,16.438c-0.236-0.118-0.331-0.404-0.213-0.64c0.118-0.236,0.404-0.331,0.64-0.213
	l9.809,4.905l9.809-4.905C20.545,15.467,20.832,15.562,20.95,15.798z M20.95,10.787c0.118,0.236,0.022,0.522-0.213,0.64
	l-10.023,5.011c-0.067,0.034-0.14,0.05-0.213,0.05s-0.146-0.017-0.213-0.05L0.264,11.427c-0.236-0.118-0.331-0.404-0.213-0.64
	c0.118-0.236,0.404-0.331,0.64-0.213l9.809,4.905l9.809-4.905C20.545,10.455,20.832,10.551,20.95,10.787z"/>
</svg>
