<?xml version="1.0" encoding="utf-8"?>
<!-- Generator: Adobe Illustrator 22.0.0, SVG Export Plug-In . SVG Version: 6.00 Build 0)  -->
<svg version="1.1" id="Layer_1" xmlns="http://www.w3.org/2000/svg" xmlns:xlink="http://www.w3.org/1999/xlink" x="0px" y="0px"
	 width="33px" height="30px" viewBox="0 0 33 30" style="enable-background:new 0 0 33 30;" xml:space="preserve">
<style type="text/css">
	.st0{fill:#0064DC;}
</style>
<g>
	<path class="st0" d="M5.596,0L0.3,30l27.111,0L32.7,0L5.596,0z M25.868,28.5l-23.496,0l4.761-27l23.496,0L25.868,28.5z"/>
	<path class="st0" d="M23.04,7.967l-1.006-0.731l-5.798,2.866l-4.21-4.058l-1.006,0.731l0.934,6.4l-5.161,2.75l0.384,1.183
		l6.376,1.089l1.021,5.758h1.244l3.006-5.727l5.792,0.809l0.384-1.183l-4.518-4.629L23.04,7.967z M22.547,17.331l-4.518-0.663
		l-2.472,4.794l-0.765-4.502l-5.324-0.87l4.045-2.119L12.695,8.64l3.265,3.192l4.818-2.425l-2.027,4.092L22.547,17.331z"/>
</g>
</svg>
