<?xml version="1.0" encoding="utf-8"?>
<!-- Generator: Adobe Illustrator 22.0.0, SVG Export Plug-In . SVG Version: 6.00 Build 0)  -->
<svg version="1.1" id="Layer_1" xmlns="http://www.w3.org/2000/svg" xmlns:xlink="http://www.w3.org/1999/xlink" x="0px" y="0px"
	 width="410px" height="330px" viewBox="0 0 410 330" enable-background="new 0 0 410 330" xml:space="preserve">
<g>
	<g>
		<g>
			<path fill="#F5F5F5" d="M163.187,230.889c-27.614-14.924-46.417-44.143-46.417-77.674c0-38.946,25.367-72.074,60.445-83.741
				c-5.717-1.325-11.67-2.039-17.79-2.039c-43.349,0-78.49,35.141-78.49,78.49c0,39.304,28.889,71.859,66.591,77.593
				c1.904,14.718,7.318,28.334,15.375,39.983v-31.243C162.902,231.771,163.005,231.309,163.187,230.889z"/>
		</g>
		<g>
			<path fill="#F5F5F5" d="M291.96,138.315c0.828,4.846,1.265,9.822,1.265,14.9c0,33.53-18.802,62.748-46.415,77.673
				c0.183,0.42,0.285,0.882,0.285,1.37v53.811c0,1.261-0.69,2.42-1.799,3.021c-1.107,0.601-2.457,0.546-3.513-0.141l-36.786-23.951
				l-25.549,16.636c15.826,13.248,36.213,21.226,58.466,21.226c50.339,0,91.147-40.808,91.147-91.147
				C329.062,181.606,314.462,154.913,291.96,138.315z"/>
		</g>
	</g>
	<g id="XMLID_1_">
		<circle fill="#EFEFEF" cx="196.279" cy="155.739" r="75.839"/>
		<polygon fill="#EFEFEF" points="191.768,267.489 164.687,286.733 164.687,230.589 191.768,239.61 		"/>
		<polygon fill="#EFEFEF" points="204.46,261.484 227.639,276.364 227.701,239.224 203.28,239.037 		"/>
		<g>
			<g>
				<path fill="#D4D4D4" d="M204.999,241.443c-48.649,0-88.227-39.579-88.227-88.227s39.578-88.227,88.227-88.227
					s88.227,39.578,88.227,88.227S253.647,241.443,204.999,241.443z M204.999,71.862c-44.858,0-81.354,36.495-81.354,81.354
					c0,44.859,36.495,81.354,81.354,81.354s81.354-36.495,81.354-81.354C286.352,108.357,249.857,71.862,204.999,71.862z"/>
			</g>
			<g>
				<g>
					<path fill="#D4D4D4" d="M195.535,185.148c-0.879,0-1.759-0.335-2.43-1.007l-21.937-21.937c-1.342-1.342-1.342-3.518,0-4.86
						c1.341-1.342,3.518-1.342,4.86,0l19.507,19.507l38.434-38.434c1.341-1.342,3.518-1.342,4.86,0c1.342,1.342,1.342,3.518,0,4.86
						l-40.864,40.864C197.294,184.812,196.414,185.148,195.535,185.148z"/>
				</g>
			</g>
			<g>
				<path fill="#D4D4D4" d="M166.34,289.506c-0.563,0-1.126-0.138-1.638-0.415c-1.109-0.601-1.799-1.76-1.799-3.021v-53.811
					c0-1.898,1.539-3.437,3.437-3.437c1.898,0,3.437,1.539,3.437,3.437v47.473l33.347-21.714c1.14-0.742,2.61-0.742,3.75,0
					l33.349,21.714v-47.473c0-1.898,1.539-3.437,3.437-3.437s3.437,1.539,3.437,3.437v53.811c0,1.261-0.69,2.42-1.799,3.021
					c-1.108,0.601-2.457,0.546-3.513-0.141l-36.786-23.951l-36.783,23.951C167.647,289.319,166.994,289.506,166.34,289.506z"/>
			</g>
			<g>
				<path fill="#D4D4D4" d="M204.999,264.333c-1.898,0-3.437-1.539-3.437-3.437v-22.891c0-1.898,1.539-3.437,3.437-3.437
					s3.437,1.539,3.437,3.437v22.891C208.435,262.795,206.896,264.333,204.999,264.333z"/>
			</g>
		</g>
		<g>
			<g>
				<circle fill="#E6E6E6" cx="68.126" cy="253.385" r="5.198"/>
			</g>
			<path fill="#D4D4D4" d="M70.235,242.445c-5.792,0-10.505,4.712-10.505,10.505c0,5.792,4.712,10.505,10.505,10.505
				s10.505-4.712,10.505-10.505C80.739,247.157,76.027,242.445,70.235,242.445z M70.235,258.907c-3.285,0-5.958-2.673-5.958-5.958
				c0-3.285,2.673-5.958,5.958-5.958c3.285,0,5.958,2.673,5.958,5.958C76.192,256.234,73.519,258.907,70.235,258.907z"/>
		</g>
		<g>
			<g>
				<circle fill="#E6E6E6" cx="358.086" cy="155.602" r="5.198"/>
			</g>
			<path fill="#D4D4D4" d="M360.195,144.661c-5.792,0-10.505,4.712-10.505,10.505s4.712,10.505,10.505,10.505
				c5.792,0,10.505-4.712,10.505-10.505S365.987,144.661,360.195,144.661z M360.195,161.124c-3.285,0-5.958-2.673-5.958-5.958
				c0-3.285,2.673-5.958,5.958-5.958c3.285,0,5.958,2.673,5.958,5.958C366.152,158.451,363.48,161.124,360.195,161.124z"/>
		</g>
		<g>
			<g>
				<circle fill="#E6E6E6" cx="68.126" cy="32.842" r="5.198"/>
			</g>
			<path fill="#D4D4D4" d="M70.235,21.901c-5.792,0-10.505,4.712-10.505,10.505s4.712,10.505,10.505,10.505
				s10.505-4.712,10.505-10.505S76.027,21.901,70.235,21.901z M70.235,38.364c-3.285,0-5.958-2.673-5.958-5.958
				c0-3.285,2.673-5.958,5.958-5.958c3.285,0,5.958,2.673,5.958,5.958C76.192,35.691,73.519,38.364,70.235,38.364z"/>
		</g>
		<rect x="131.576" y="314.89" fill="#EFEFEF" width="9.662" height="15.575"/>
		<rect x="256.473" y="311.783" fill="#EFEFEF" width="8.281" height="18.682"/>
		<rect x="243.979" y="319.146" fill="#EFEFEF" width="13.12" height="11.32"/>
		<path fill="#D4D4D4" d="M275.798,323.595v-5.923c0-5.669-4.612-10.281-10.281-10.281h-3.277c-4.743,0-8.826,3.222-9.968,7.758
			c-1.188-0.47-2.443-0.707-3.74-0.707c-5.266,0-9.655,3.978-10.22,9.153h-86.669v-3.141c0-5.669-4.612-10.281-10.281-10.281h-3.278
			c-5.669,0-10.281,4.612-10.281,10.281v3.141H-0.05v6.854h134.708v-9.996c0-1.89,1.537-3.427,3.427-3.427h3.278
			c1.89,0,3.427,1.537,3.427,3.427v9.996h100.316v-5.726c0-1.89,1.537-3.427,3.427-3.427s3.427,1.537,3.427,3.427v5.742h6.854
			v-12.793c0-1.89,1.537-3.427,3.427-3.427h3.277c1.89,0,3.427,1.537,3.427,3.427v12.777H410.05v-6.854H275.798z"/>
		<g>
			<g>
				<path fill="#EFEFEF" d="M89.577,108.251L89.577,108.251c-0.741,1.666-2.692,2.416-4.359,1.675l-15.993-7.113
					c-1.666-0.741-2.416-2.692-1.675-4.359v0c0.741-1.666,2.692-2.416,4.359-1.675l15.993,7.113
					C89.568,104.633,90.318,106.585,89.577,108.251z"/>
			</g>
			<g>
				<path fill="#D4D4D4" d="M94.992,108.298c-2.232,4.97-8.091,7.198-13.061,4.966l-19.573-8.79
					c-4.97-2.232-7.197-8.091-4.966-13.061c2.232-4.97,8.091-7.198,13.061-4.966l19.573,8.79
					C94.996,97.469,97.224,103.328,94.992,108.298z M62.879,93.877c-0.874,1.945-0.002,4.238,1.943,5.111l19.573,8.79
					c1.945,0.873,4.237,0.002,5.111-1.943l0-0.001c0.873-1.945,0.002-4.237-1.943-5.111l-19.573-8.79
					C66.045,91.06,63.752,91.932,62.879,93.877z"/>
			</g>
		</g>
		<g>
			<g>
				<path fill="#EFEFEF" d="M135.209,55.877L135.209,55.877c-1.53,0.992-3.575,0.555-4.566-0.975l-9.52-14.689
					c-0.992-1.53-0.555-3.575,0.975-4.566l0,0c1.53-0.992,3.575-0.555,4.566,0.975l9.52,14.689
					C137.176,52.841,136.739,54.886,135.209,55.877z"/>
			</g>
			<g>
				<path fill="#D4D4D4" d="M139.721,58.872c-4.583,2.947-10.708,1.616-13.655-2.967l-11.604-18.047
					c-2.946-4.583-1.615-10.708,2.967-13.654c4.583-2.947,10.708-1.616,13.655,2.967l11.604,18.047
					C145.635,49.8,144.304,55.926,139.721,58.872z M120.682,29.262c-1.793,1.153-2.314,3.55-1.161,5.343l11.604,18.047
					c1.153,1.793,3.55,2.314,5.343,1.161l0,0c1.793-1.153,2.314-3.55,1.161-5.343l-11.604-18.047
					C124.872,28.63,122.475,28.109,120.682,29.262z"/>
			</g>
		</g>
		<g>
			<g>
				<path fill="#EFEFEF" d="M200.887,35.779L200.887,35.779c-1.824-0.004-3.298-1.486-3.294-3.309l0.04-17.504
					c0.004-1.823,1.486-3.298,3.309-3.294l0,0c1.823,0.004,3.298,1.486,3.294,3.309l-0.04,17.504
					C204.192,34.308,202.71,35.783,200.887,35.779z"/>
			</g>
			<g>
				<path fill="#D4D4D4" d="M203.033,40.751c-5.449-0.032-9.854-4.491-9.822-9.939l0.127-21.456
					c0.032-5.448,4.491-9.854,9.939-9.822c5.449,0.032,9.854,4.491,9.822,9.939l-0.127,21.456
					C212.94,36.377,208.481,40.783,203.033,40.751z M203.241,5.549c-2.132-0.013-3.877,1.712-3.89,3.843l-0.127,21.456
					c-0.013,2.132,1.712,3.876,3.843,3.889l0.001,0c2.132,0.013,3.876-1.712,3.889-3.843l0.127-21.456
					C207.097,7.306,205.373,5.561,203.241,5.549z"/>
			</g>
		</g>
		<g>
			<g>
				<path fill="#EFEFEF" d="M268.067,54.859L268.067,54.859c-1.538-0.979-1.991-3.02-1.012-4.558l9.4-14.765
					c0.979-1.538,3.02-1.991,4.558-1.012l0,0c1.538,0.979,1.991,3.02,1.012,4.558l-9.4,14.765
					C271.646,55.385,269.605,55.838,268.067,54.859z"/>
			</g>
			<g>
				<path fill="#D4D4D4" d="M267.22,60.207c-4.586-2.943-5.922-9.067-2.98-13.652l11.588-18.058
					c2.942-4.585,9.066-5.922,13.651-2.979c4.586,2.943,5.922,9.067,2.98,13.652l-11.588,18.058
					C277.929,61.813,271.805,63.15,267.22,60.207z M286.231,30.58c-1.795-1.152-4.191-0.629-5.342,1.166l-11.588,18.058
					c-1.151,1.794-0.628,4.191,1.166,5.342l0,0c1.794,1.151,4.191,0.628,5.342-1.166l11.588-18.058
					C288.549,34.128,288.026,31.731,286.231,30.58z"/>
			</g>
		</g>
		<g>
			<g>
				<path fill="#EFEFEF" d="M313.686,103.861L313.686,103.861c-0.717-1.676,0.06-3.617,1.736-4.335l16.092-6.887
					c1.676-0.717,3.617,0.06,4.335,1.736v0c0.717,1.676-0.06,3.617-1.736,4.335l-16.092,6.887
					C316.345,106.314,314.404,105.537,313.686,103.861z"/>
			</g>
			<g>
				<path fill="#D4D4D4" d="M309.969,107.799c-2.126-5.017,0.226-10.827,5.242-12.953l19.756-8.371
					c5.016-2.126,10.827,0.226,12.952,5.242c2.126,5.017-0.226,10.827-5.242,12.953l-19.756,8.371
					C317.905,115.167,312.095,112.815,309.969,107.799z M342.382,94.064c-0.832-1.963-3.106-2.884-5.068-2.052l-19.756,8.371
					c-1.963,0.832-2.883,3.105-2.051,5.068l0,0.001c0.832,1.963,3.105,2.883,5.068,2.051l19.756-8.371
					C342.293,98.301,343.214,96.027,342.382,94.064z"/>
			</g>
		</g>
	</g>
</g>
</svg>
