<?xml version="1.0" encoding="utf-8"?>
<!-- Generator: Adobe Illustrator 22.0.0, SVG Export Plug-In . SVG Version: 6.00 Build 0)  -->
<svg version="1.1" id="Layer_1" xmlns="http://www.w3.org/2000/svg" xmlns:xlink="http://www.w3.org/1999/xlink" x="0px" y="0px"
	 width="13px" height="15px" viewBox="0 0 13 15" style="enable-background:new 0 0 13 15;" xml:space="preserve">
<style type="text/css">
	.st0{fill:#808080;}
</style>
<path class="st0" d="M12,3.3l-0.9,10c-0.1,0.8-0.7,1.4-1.5,1.4H3.4c-0.8,0-1.4-0.6-1.5-1.4L1,3.3C1,3.1,1.1,3,1.3,3
	c0.2,0,0.3,0.1,0.4,0.3l0.9,10c0,0.4,0.4,0.8,0.8,0.8h6.2c0.4,0,0.8-0.3,0.8-0.8l0.9-10c0-0.2,0.2-0.3,0.4-0.3C11.8,3,12,3.1,12,3.3
	z M13,1.8c0,0.2-0.1,0.3-0.3,0.3h-4H4.3H0.4C0.2,2.2,0,2,0,1.8c0-0.2,0.1-0.3,0.3-0.3h3.7l0.5-1.1c0.1-0.1,0.2-0.2,0.3-0.2h3.3
	c0.1,0,0.2,0.1,0.3,0.2l0.5,1.1h3.7C12.8,1.5,13,1.7,13,1.8z M8.2,1.5L7.9,0.9H5.1L4.8,1.5H8.2z M6.8,10.7V4.7
	c0-0.2-0.1-0.3-0.3-0.3S6.2,4.5,6.2,4.7v6.1c0,0.2,0.1,0.3,0.3,0.3S6.8,10.9,6.8,10.7z M4.2,11.1C4.2,11.1,4.2,11.1,4.2,11.1
	c0.2,0,0.3-0.2,0.3-0.3l-0.3-6c0-0.2-0.2-0.3-0.3-0.3c-0.2,0-0.3,0.2-0.3,0.3l0.3,6C3.9,10.9,4,11.1,4.2,11.1z M8.8,11.1
	c0.2,0,0.3-0.1,0.3-0.3l0.3-6c0-0.2-0.1-0.3-0.3-0.3c-0.2,0-0.3,0.1-0.3,0.3l-0.3,6C8.5,10.9,8.6,11,8.8,11.1
	C8.8,11.1,8.8,11.1,8.8,11.1z"/>
</svg>
