<?xml version="1.0" encoding="utf-8"?>
<!-- Generator: Adobe Illustrator 22.0.0, SVG Export Plug-In . SVG Version: 6.00 Build 0)  -->
<svg version="1.1" id="Layer_1" xmlns="http://www.w3.org/2000/svg" xmlns:xlink="http://www.w3.org/1999/xlink" x="0px" y="0px"
	 width="30px" height="30px" viewBox="0 0 30 30" style="enable-background:new 0 0 30 30;" xml:space="preserve">
<style type="text/css">
	.st0{fill:#383A3F;}
</style>
<path class="st0" d="M21.435,22.882l1.174,3.479l-0.028,0.125c-0.885,0.851-3.012,1.482-4.75,1.512L17.633,28
	c-5.717,0-6.697-4.366-6.697-6.944v-8.3l-0.119-0.119H7.538l-0.119-0.119L7.39,8.907l0.075-0.109c2.955-1.15,4.605-3.06,5.037-6.596
	C12.529,2.006,12.69,2,12.693,2h4.065l0.119,0.119V7.8l0.119,0.119h4.486l0.117,0.119v4.482l-0.117,0.119h-4.506l-0.115,0.119v7.906
	c0.028,1.696,0.843,2.557,2.436,2.557c0.639,0,1.314-0.15,1.985-0.406L21.435,22.882z"/>
</svg>
