<?xml version="1.0" encoding="utf-8"?>
<!-- Generator: Adobe Illustrator 22.0.0, SVG Export Plug-In . SVG Version: 6.00 Build 0)  -->
<svg version="1.1" id="Layer_1" xmlns="http://www.w3.org/2000/svg" xmlns:xlink="http://www.w3.org/1999/xlink" x="0px" y="0px"
	 width="30px" height="30px" viewBox="0 0 30 30" enable-background="new 0 0 30 30" xml:space="preserve">
<path fill="#383A3F" d="M30,5.696c-0.001,0-0.001,0.001-0.002,0.001c0,0,0-0.001,0.001-0.001H30z M29.171,3.261
	c-1.189,0.706-2.506,1.217-3.908,1.493c-1.122-1.196-2.722-1.943-4.492-1.943c-3.399,0-6.154,2.755-6.154,6.154
	c0,0.483,0.054,0.952,0.159,1.403C9.661,10.111,5.126,7.66,2.09,3.937c-0.53,0.909-0.833,1.966-0.833,3.094
	c0,2.135,1.086,4.019,2.738,5.123c-1.009-0.032-1.958-0.309-2.788-0.77c-0.001,0.026-0.001,0.052-0.001,0.077
	c0,2.982,2.122,5.469,4.937,6.035c-0.516,0.141-1.06,0.215-1.621,0.215c-0.397,0-0.782-0.038-1.158-0.11
	c0.784,2.445,3.056,4.225,5.75,4.274c-2.108,1.651-4.761,2.634-7.645,2.634c-0.496,0-0.987-0.029-1.469-0.086
	c2.725,1.746,5.959,2.765,9.435,2.765c11.32,0,17.51-9.378,17.51-17.511c0-0.267-0.006-0.532-0.017-0.796
	c1.202-0.868,2.245-1.952,3.07-3.186c-1.103,0.489-2.288,0.82-3.532,0.969C27.736,5.904,28.712,4.698,29.171,3.261z"/>
</svg>
