<?xml version="1.0" encoding="utf-8"?>
<!-- Generator: Adobe Illustrator 22.0.0, SVG Export Plug-In . SVG Version: 6.00 Build 0)  -->
<svg version="1.1" id="Layer_1" xmlns="http://www.w3.org/2000/svg" xmlns:xlink="http://www.w3.org/1999/xlink" x="0px" y="0px"
	 width="60px" height="60px" viewBox="0 0 60 60" enable-background="new 0 0 60 60" xml:space="preserve">
<g id="Publicar">
	<g id="lapiz">
		<g id="comentar">
		</g>
		<g id="LikeMedalla">
		</g>
		<g id="CompartirShare">
			<g>
				<g id="XMLID_28_">
					<path fill="#FFFFFF" d="M30,0.24C13.59,0.24,0.24,13.59,0.24,30S13.59,59.76,30,59.76S59.76,46.41,59.76,30S46.41,0.24,30,0.24
						z M30,57.576C14.795,57.576,2.424,45.205,2.424,30S14.795,2.424,30,2.424c15.205,0,27.576,12.37,27.576,27.576
						S45.205,57.576,30,57.576z"/>
					<path fill="#FFFFFF" d="M30,23.716c-3.465,0-6.284,2.819-6.284,6.284s2.819,6.284,6.284,6.284s6.284-2.819,6.284-6.284
						S33.465,23.716,30,23.716z M30,34.1c-2.261,0-4.1-1.839-4.1-4.1c0-2.261,1.839-4.1,4.1-4.1c2.261,0,4.1,1.839,4.1,4.1
						C34.1,32.261,32.261,34.1,30,34.1z"/>
					<path fill="#FFFFFF" d="M30,18.646c-10.145,0-17.951,10.262-18.279,10.699c-0.296,0.395-0.29,0.94,0.015,1.329
						C12.078,31.11,20.23,41.354,30,41.354c9.77,0,17.921-10.243,18.264-10.679c0.305-0.389,0.311-0.934,0.015-1.329
						C47.951,28.908,40.145,18.646,30,18.646z M30,39.17c-7.362,0-14.055-6.976-15.988-9.183C15.883,27.772,22.36,20.83,30,20.83
						c7.641,0,14.118,6.942,15.988,9.156C44.054,32.194,37.362,39.17,30,39.17z"/>
				</g>
			</g>
		</g>
	</g>
	<g id="Trofeo_Boton">
	</g>
	<g id="Cámara_Botón">
	</g>
</g>
</svg>
