<?xml version="1.0" encoding="utf-8"?>
<!-- Generator: Adobe Illustrator 22.0.0, SVG Export Plug-In . SVG Version: 6.00 Build 0)  -->
<svg version="1.1" id="Layer_1" xmlns="http://www.w3.org/2000/svg" xmlns:xlink="http://www.w3.org/1999/xlink" x="0px" y="0px"
	 width="18px" height="18px" viewBox="0 0 18 18" style="enable-background:new 0 0 18 18;" xml:space="preserve">
<style type="text/css">
	.st0{fill:#818181;}
</style>
<path class="st0" d="M17.813,8.82C17.683,8.56,14.563,2.45,9,2.45S0.317,8.56,0.188,8.82c-0.057,0.113-0.057,0.247,0,0.36
	C0.317,9.44,3.437,15.55,9,15.55s8.683-6.11,8.813-6.37C17.869,9.067,17.869,8.933,17.813,8.82z M9,14.745
	c-4.557,0-7.443-4.752-7.996-5.746C1.556,8.006,4.436,3.255,9,3.255c4.557,0,7.442,4.752,7.995,5.745
	C16.443,9.994,13.564,14.745,9,14.745z M9,6.292C7.507,6.292,6.292,7.507,6.292,9S7.507,11.708,9,11.708S11.708,10.493,11.708,9
	S10.493,6.292,9,6.292z M9,10.903c-1.049,0-1.903-0.854-1.903-1.903c0-1.049,0.854-1.903,1.903-1.903
	c1.05,0,1.903,0.854,1.903,1.903C10.903,10.05,10.05,10.903,9,10.903z"/>
</svg>
