<?xml version="1.0" encoding="utf-8"?>
<!-- Generator: Adobe Illustrator 22.0.0, SVG Export Plug-In . SVG Version: 6.00 Build 0)  -->
<svg version="1.1" id="Layer_1" xmlns="http://www.w3.org/2000/svg" xmlns:xlink="http://www.w3.org/1999/xlink" x="0px" y="0px"
	 width="24px" height="15px" viewBox="0 0 24 15" style="enable-background:new 0 0 24 15;" xml:space="preserve">
<style type="text/css">
	.st0{fill:#383A3F;}
</style>
<path class="st0" d="M12.4,0.7v13.6c0,0.2-0.2,0.4-0.4,0.4s-0.4-0.2-0.4-0.4V0.7c0-0.2,0.2-0.4,0.4-0.4S12.4,0.5,12.4,0.7z M7.5,7.2
	c0.2,0.2,0.2,0.4,0,0.6l-6.4,6.8c-0.1,0.1-0.2,0.1-0.3,0.1c-0.1,0-0.1,0-0.2,0c-0.2-0.1-0.3-0.2-0.3-0.4V0.7c0-0.2,0.1-0.3,0.3-0.4
	c0.2-0.1,0.3,0,0.5,0.1L7.5,7.2z M6.6,7.5L1.3,1.8v11.4L6.6,7.5z M23.3,0.4c-0.1-0.1-0.3,0-0.4,0.1l-6.4,6.8c-0.1,0.2-0.1,0.4,0,0.5
	l6.4,6.8c0.1,0.1,0.2,0.1,0.3,0.1c0,0,0.1,0,0.1,0c0.1-0.1,0.2-0.2,0.2-0.4V0.7C23.6,0.6,23.5,0.4,23.3,0.4z"/>
</svg>
