<?xml version="1.0" encoding="utf-8"?>
<!-- Generator: Adobe Illustrator 22.0.0, SVG Export Plug-In . SVG Version: 6.00 Build 0)  -->
<svg version="1.1" id="Layer_1" xmlns="http://www.w3.org/2000/svg" xmlns:xlink="http://www.w3.org/1999/xlink" x="0px" y="0px"
	 width="23px" height="23px" viewBox="0 0 23 23" style="enable-background:new 0 0 23 23;" xml:space="preserve">
<style type="text/css">
	.st0{fill:#383A3F;}
</style>
<path class="st0" d="M21.9,6.7c0-0.1,0-0.1-0.1-0.2C20,2.7,16.1,0,11.5,0c0,0,0,0,0,0c0,0,0,0,0,0C6.9,0,3,2.7,1.2,6.5
	c0,0.1-0.1,0.1-0.1,0.2C0.4,8.1,0,9.8,0,11.5c0,1.7,0.4,3.4,1.1,4.8c0,0.1,0,0.1,0.1,0.2C3,20.3,7,23,11.5,23
	c4.5,0,8.5-2.7,10.3-6.5c0,0,0.1-0.1,0.1-0.2c0.7-1.5,1.1-3.1,1.1-4.8C23,9.8,22.6,8.1,21.9,6.7z M20.8,6.3h-4.7
	c-0.5-2.3-1.4-4.2-2.4-5.2C16.8,1.7,19.3,3.7,20.8,6.3z M15.8,11.5c0,1.5-0.1,3-0.4,4.3H7.6c-0.2-1.3-0.4-2.8-0.4-4.3
	c0-1.5,0.1-3,0.4-4.3h7.9C15.7,8.5,15.8,10,15.8,11.5z M11.5,0.8C11.5,0.8,11.5,0.8,11.5,0.8C11.5,0.8,11.5,0.8,11.5,0.8
	c1.1,0,2.2,1.1,3,3c0.3,0.7,0.6,1.6,0.8,2.5H7.7c0.2-0.9,0.5-1.7,0.8-2.5C9.3,1.9,10.4,0.9,11.5,0.8z M9.3,1.1
	C8.2,2.2,7.4,4,6.9,6.3H2.2C3.7,3.7,6.2,1.7,9.3,1.1z M0.8,11.5c0-1.5,0.3-3,0.9-4.3h4.9C6.5,8.5,6.3,10,6.3,11.5
	c0,1.5,0.1,3,0.4,4.3H1.8C1.2,14.5,0.8,13,0.8,11.5z M2.2,16.7h4.7c0.5,2.3,1.4,4.2,2.4,5.3C6.2,21.3,3.7,19.3,2.2,16.7z M11.5,22.2
	c-1.1,0-2.2-1.1-3-3c-0.3-0.7-0.6-1.6-0.8-2.5h7.5c-0.2,0.9-0.5,1.7-0.8,2.5C13.7,21.1,12.6,22.2,11.5,22.2z M13.7,21.9
	c1.1-1.1,1.9-2.9,2.4-5.3h4.7C19.3,19.3,16.8,21.3,13.7,21.9z M21.2,15.8h-4.9c0.2-1.3,0.4-2.8,0.4-4.3c0-1.5-0.1-3-0.4-4.3h4.9
	c0.6,1.3,0.9,2.8,0.9,4.3C22.2,13,21.8,14.5,21.2,15.8z"/>
</svg>
