<?xml version="1.0" encoding="utf-8"?>
<!-- Generator: Adobe Illustrator 22.0.0, SVG Export Plug-In . SVG Version: 6.00 Build 0)  -->
<svg version="1.1" id="Layer_1" xmlns="http://www.w3.org/2000/svg" xmlns:xlink="http://www.w3.org/1999/xlink" x="0px" y="0px"
	 width="15px" height="15px" viewBox="0 0 15 15" style="enable-background:new 0 0 15 15;" xml:space="preserve">
<style type="text/css">
	.st0{fill:#818181;}
</style>
<path class="st0" d="M14.066,10.553C14.5,9.624,14.75,8.592,14.75,7.5c0-1.09-0.249-2.122-0.682-3.05
	c-0.011-0.041-0.029-0.078-0.054-0.111c-1.175-2.411-3.641-4.08-6.496-4.087C7.512,0.252,7.506,0.25,7.5,0.25
	S7.488,0.252,7.482,0.252C4.629,0.259,2.165,1.926,0.989,4.334C0.962,4.369,0.942,4.41,0.931,4.454C0.499,5.382,0.25,6.412,0.25,7.5
	c0,1.09,0.249,2.121,0.682,3.049c0.011,0.038,0.028,0.072,0.05,0.104c1.176,2.42,3.651,4.097,6.518,4.097
	c2.869,0,5.346-1.679,6.521-4.102C14.04,10.618,14.056,10.588,14.066,10.553z M7.5,14.048c-0.631,0-1.276-0.659-1.769-1.808
	c-0.184-0.429-0.328-0.92-0.453-1.434h4.444c-0.125,0.514-0.27,1.005-0.453,1.434C8.776,13.389,8.131,14.048,7.5,14.048z
	 M5.118,10.105C4.972,9.292,4.894,8.411,4.894,7.5c0-0.912,0.078-1.794,0.225-2.607h4.763c0.146,0.813,0.225,1.695,0.225,2.607
	c0,0.912-0.078,1.792-0.224,2.605H5.118z M0.952,7.5c0-0.927,0.196-1.808,0.545-2.608H4.41C4.27,5.713,4.193,6.592,4.193,7.5
	c0,0.906,0.077,1.785,0.217,2.605H1.495C1.147,9.306,0.952,8.426,0.952,7.5z M7.488,0.953c0.004,0,0.008-0.001,0.012-0.001
	s0.008,0.001,0.012,0.001C8.14,0.961,8.779,1.618,9.269,2.759c0.183,0.428,0.328,0.918,0.453,1.432H5.278
	c0.125-0.514,0.27-1.004,0.453-1.432C6.221,1.618,6.86,0.961,7.488,0.953z M10.59,4.892h2.913c0.349,0.8,0.545,1.681,0.545,2.608
	c0,0.925-0.195,1.805-0.543,2.604H10.59c0.14-0.821,0.217-1.699,0.217-2.605C10.807,6.592,10.73,5.713,10.59,4.892z M13.141,4.191
	h-2.702c-0.141-0.615-0.308-1.2-0.526-1.708C9.687,1.955,9.428,1.516,9.145,1.17C10.842,1.611,12.271,2.715,13.141,4.191z
	 M5.855,1.169C5.572,1.516,5.313,1.955,5.087,2.483C4.869,2.991,4.702,3.576,4.561,4.191H1.859C2.729,2.715,4.158,1.611,5.855,1.169
	z M1.856,10.806H4.56c0.141,0.616,0.309,1.201,0.527,1.71c0.227,0.529,0.486,0.969,0.77,1.316
	C4.157,13.39,2.726,12.285,1.856,10.806z M9.143,13.832c0.284-0.347,0.543-0.787,0.77-1.316c0.218-0.509,0.386-1.094,0.527-1.71
	h2.704C12.274,12.285,10.843,13.39,9.143,13.832z"/>
</svg>
