<?xml version="1.0" encoding="utf-8"?>
<!-- Generator: Adobe Illustrator 22.0.0, SVG Export Plug-In . SVG Version: 6.00 Build 0)  -->
<svg version="1.1" id="Layer_1" xmlns="http://www.w3.org/2000/svg" xmlns:xlink="http://www.w3.org/1999/xlink" x="0px" y="0px"
	 width="276px" height="80px" viewBox="0 0 276 80" style="enable-background:new 0 0 276 80;" xml:space="preserve">
<style type="text/css">
	.st0{fill:#FFFFFF;}
</style>
<g>
	<path class="st0" d="M14.535,0L0.385,80h261.08l14.15-80L14.535,0z M257.337,76L5.915,75.944L18.693,4h251.379L257.337,76z"/>
	<g>
		<path class="st0" d="M66.569,45.71c0.089-0.575,0.027-1.062-0.183-1.461c-0.211-0.398-0.505-0.733-0.882-1.004
			c-0.377-0.271-0.808-0.501-1.291-0.689c-0.483-0.188-0.946-0.365-1.39-0.531c-0.577-0.21-1.152-0.443-1.723-0.697
			c-0.572-0.254-1.121-0.542-1.648-0.863c-0.527-0.321-1.016-0.678-1.465-1.07c-0.45-0.393-0.835-0.83-1.157-1.312
			c-0.322-0.481-0.569-1.015-0.741-1.601c-0.172-0.586-0.236-1.228-0.191-1.925c0.044-0.797,0.208-1.521,0.491-2.174
			c0.283-0.653,0.655-1.237,1.116-1.751c0.461-0.515,0.993-0.963,1.598-1.345c0.605-0.381,1.249-0.694,1.931-0.938
			c0.683-0.243,1.387-0.42,2.114-0.531c0.727-0.111,1.446-0.16,2.156-0.149c1.132,0.022,2.181,0.205,3.147,0.548
			c0.966,0.343,1.804,0.835,2.514,1.477c0.71,0.642,1.262,1.422,1.656,2.34s0.585,1.959,0.575,3.12l-4.862-0.017
			c0.033-1.095-0.225-1.944-0.774-2.548s-1.39-0.916-2.522-0.938c-0.466-0.011-0.938,0.039-1.415,0.149
			c-0.477,0.111-0.916,0.285-1.315,0.523c-0.4,0.238-0.741,0.542-1.024,0.912c-0.283,0.371-0.464,0.811-0.541,1.32
			c-0.078,0.52,0.008,0.966,0.258,1.336c0.25,0.371,0.58,0.686,0.991,0.946c0.41,0.26,0.855,0.476,1.332,0.647
			c0.477,0.172,0.905,0.324,1.282,0.457c0.91,0.321,1.79,0.703,2.639,1.145s1.596,0.971,2.24,1.585
			c0.643,0.615,1.146,1.334,1.507,2.158c0.361,0.825,0.508,1.773,0.441,2.847c-0.056,0.808-0.219,1.541-0.491,2.199
			c-0.272,0.659-0.63,1.242-1.074,1.751c-0.444,0.509-0.958,0.946-1.54,1.311c-0.583,0.365-1.21,0.667-1.881,0.905
			c-0.672,0.238-1.371,0.412-2.098,0.523c-0.727,0.111-1.457,0.16-2.189,0.149c-1.21-0.022-2.345-0.21-3.405-0.564
			c-1.06-0.354-1.981-0.869-2.764-1.544s-1.399-1.502-1.848-2.481c-0.45-0.98-0.663-2.105-0.641-3.378l4.862,0.017
			c-0.056,1.339,0.258,2.335,0.94,2.988c0.683,0.653,1.696,0.99,3.039,1.012c0.477,0,0.949-0.05,1.415-0.149
			c0.466-0.1,0.893-0.263,1.282-0.489c0.388-0.227,0.718-0.523,0.99-0.888C66.3,46.672,66.48,46.23,66.569,45.71z"/>
		<path class="st0" d="M95.077,32.033h-7.193l-3.496,20.133H79.51l3.496-20.133h-7.109L76.613,28h19.18L95.077,32.033z"/>
		<path class="st0" d="M106.902,47.187h-8.458l-2.497,4.979h-5.378L103.522,28h4.512l4.612,24.166h-4.978L106.902,47.187z
			 M100.442,43.154h5.844l-1.365-8.996L100.442,43.154z"/>
		<path class="st0" d="M126.061,28l2.98,17.477L138.082,28h6.493l-4.212,24.166h-4.895l1.199-6.888l2.364-10.755l-9.29,17.643
			h-3.347l-3.247-18.257l-1.565,11.9l-1.116,6.357h-4.878L119.801,28H126.061z"/>
		<path class="st0" d="M150.431,52.166h-4.878L149.749,28h4.878L150.431,52.166z"/>
		<path class="st0" d="M174.718,52.166h-4.728l-6.743-16.116l-2.814,16.116h-4.878L159.767,28h4.712l6.76,16.149L174.052,28h4.862
			L174.718,52.166z"/>
		<path class="st0" d="M195.592,41.693h-9.29l-1.132,6.473h10.922l-0.699,4h-15.8L183.804,28h15.767l-0.716,4.033h-10.872
			l-1.016,5.759h9.324L195.592,41.693z"/>
		<path class="st0" d="M210.486,43.32h-3.963l-1.548,8.846h-4.878L204.309,28l8.441,0.017c1.11,0.022,2.153,0.18,3.13,0.473
			c0.976,0.294,1.82,0.73,2.531,1.312c0.71,0.58,1.251,1.317,1.623,2.207c0.372,0.891,0.514,1.945,0.425,3.162
			c-0.123,1.726-0.644,3.157-1.565,4.291c-0.922,1.134-2.176,2.011-3.763,2.63l3.413,9.809v0.266h-5.195L210.486,43.32z
			 M207.223,39.286l3.63,0.033c0.599-0.011,1.162-0.097,1.69-0.257s0.999-0.398,1.415-0.714c0.416-0.315,0.763-0.705,1.041-1.17
			c0.277-0.465,0.46-1.007,0.549-1.627c0.155-1.073-0.017-1.914-0.516-2.523c-0.499-0.609-1.293-0.935-2.381-0.979l-4.162-0.017
			L207.223,39.286z"/>
	</g>
</g>
</svg>
