<?xml version="1.0" encoding="utf-8"?>
<!-- Generator: Adobe Illustrator 22.0.0, SVG Export Plug-In . SVG Version: 6.00 Build 0)  -->
<svg version="1.1" id="Layer_1" xmlns="http://www.w3.org/2000/svg" xmlns:xlink="http://www.w3.org/1999/xlink" x="0px" y="0px"
	 width="97px" height="28px" viewBox="0 0 97 28" style="enable-background:new 0 0 97 28;" xml:space="preserve">
<style type="text/css">
	.st0{fill:#808080;}
</style>
<g>
	<path class="st0" d="M5.4,0L0.5,28h91.1l4.9-28L5.4,0z M90.1,26.6l-87.7,0L6.9,1.4h87.7L90.1,26.6z"/>
	<g>
		<path class="st0" d="M23.6,16c0-0.2,0-0.4-0.1-0.5c-0.1-0.1-0.2-0.3-0.3-0.4c-0.1-0.1-0.3-0.2-0.5-0.2s-0.3-0.1-0.5-0.2
			c-0.2-0.1-0.4-0.2-0.6-0.2c-0.2-0.1-0.4-0.2-0.6-0.3c-0.2-0.1-0.4-0.2-0.5-0.4c-0.2-0.1-0.3-0.3-0.4-0.5c-0.1-0.2-0.2-0.4-0.3-0.6
			c-0.1-0.2-0.1-0.4-0.1-0.7c0-0.3,0.1-0.5,0.2-0.8c0.1-0.2,0.2-0.4,0.4-0.6c0.2-0.2,0.3-0.3,0.6-0.5c0.2-0.1,0.4-0.2,0.7-0.3
			c0.2-0.1,0.5-0.1,0.7-0.2c0.3,0,0.5-0.1,0.8-0.1c0.4,0,0.8,0.1,1.1,0.2s0.6,0.3,0.9,0.5c0.2,0.2,0.4,0.5,0.6,0.8
			c0.1,0.3,0.2,0.7,0.2,1.1l-1.7,0c0-0.4-0.1-0.7-0.3-0.9s-0.5-0.3-0.9-0.3c-0.2,0-0.3,0-0.5,0.1c-0.2,0-0.3,0.1-0.5,0.2
			c-0.1,0.1-0.3,0.2-0.4,0.3c-0.1,0.1-0.2,0.3-0.2,0.5c0,0.2,0,0.3,0.1,0.5c0.1,0.1,0.2,0.2,0.3,0.3c0.1,0.1,0.3,0.2,0.5,0.2
			c0.2,0.1,0.3,0.1,0.4,0.2c0.3,0.1,0.6,0.2,0.9,0.4c0.3,0.2,0.6,0.3,0.8,0.6c0.2,0.2,0.4,0.5,0.5,0.8c0.1,0.3,0.2,0.6,0.2,1
			c0,0.3-0.1,0.5-0.2,0.8c-0.1,0.2-0.2,0.4-0.4,0.6c-0.2,0.2-0.3,0.3-0.5,0.5c-0.2,0.1-0.4,0.2-0.7,0.3c-0.2,0.1-0.5,0.1-0.7,0.2
			c-0.3,0-0.5,0.1-0.8,0.1c-0.4,0-0.8-0.1-1.2-0.2s-0.7-0.3-1-0.5c-0.3-0.2-0.5-0.5-0.6-0.9C19.1,16.4,19,16,19,15.6l1.7,0
			c0,0.5,0.1,0.8,0.3,1c0.2,0.2,0.6,0.3,1.1,0.4c0.2,0,0.3,0,0.5-0.1c0.2,0,0.3-0.1,0.4-0.2c0.1-0.1,0.3-0.2,0.3-0.3
			C23.5,16.3,23.5,16.2,23.6,16z"/>
		<path class="st0" d="M33.5,11.2H31l-1.2,7h-1.7l1.2-7h-2.5l0.2-1.4h6.7L33.5,11.2z"/>
		<path class="st0" d="M37.6,16.5h-3l-0.9,1.7H32l4.5-8.5H38l1.6,8.5h-1.7L37.6,16.5z M35.4,15.1h2L37,12L35.4,15.1z"/>
		<path class="st0" d="M44.3,9.8l1,6.1l3.2-6.1h2.3l-1.5,8.5h-1.7l0.4-2.4l0.8-3.8l-3.2,6.2h-1.2l-1.1-6.4L42.8,16l-0.4,2.2h-1.7
			l1.5-8.5H44.3z"/>
		<path class="st0" d="M52.8,18.3h-1.7l1.5-8.5h1.7L52.8,18.3z"/>
		<path class="st0" d="M61.3,18.3h-1.6l-2.4-5.6l-1,5.6h-1.7l1.5-8.5h1.6l2.4,5.7l1-5.7h1.7L61.3,18.3z"/>
		<path class="st0" d="M68.6,14.6h-3.2L65,16.9h3.8l-0.2,1.4H63l1.5-8.5H70l-0.2,1.4h-3.8l-0.4,2h3.3L68.6,14.6z"/>
		<path class="st0" d="M73.8,15.2h-1.4l-0.5,3.1h-1.7l1.5-8.5l2.9,0c0.4,0,0.8,0.1,1.1,0.2c0.3,0.1,0.6,0.3,0.9,0.5
			c0.2,0.2,0.4,0.5,0.6,0.8c0.1,0.3,0.2,0.7,0.1,1.1c0,0.6-0.2,1.1-0.5,1.5c-0.3,0.4-0.8,0.7-1.3,0.9l1.2,3.4v0.1h-1.8L73.8,15.2z
			 M72.7,13.8l1.3,0c0.2,0,0.4,0,0.6-0.1c0.2-0.1,0.3-0.1,0.5-0.2c0.1-0.1,0.3-0.2,0.4-0.4c0.1-0.2,0.2-0.4,0.2-0.6
			c0.1-0.4,0-0.7-0.2-0.9c-0.2-0.2-0.5-0.3-0.8-0.3l-1.5,0L72.7,13.8z"/>
	</g>
</g>
</svg>
